<?xml version="1.0" encoding="UTF-8"?>
<!DOCTYPE svg PUBLIC "-//W3C//DTD SVG 1.1//EN" "http://www.w3.org/Graphics/SVG/1.1/DTD/svg11.dtd">
<!-- Creator: CorelDRAW 2021 (64-Bit) -->
<svg xmlns="http://www.w3.org/2000/svg" xml:space="preserve" width="84.6667mm" height="87.0523mm" version="1.1" style="shape-rendering:geometricPrecision; text-rendering:geometricPrecision; image-rendering:optimizeQuality; fill-rule:evenodd; clip-rule:evenodd"
viewBox="0 0 0.7503 0.7715"
 xmlns:xlink="http://www.w3.org/1999/xlink"
 xmlns:xodm="http://www.corel.com/coreldraw/odm/2003">
 <defs>
  <style type="text/css">
   <![CDATA[
    .fil2 {fill:#304952}
    .fil0 {fill:#304952;fill-rule:nonzero}
    .fil1 {fill:#7EDAE6;fill-rule:nonzero}
   ]]>
  </style>
 </defs>
 <g id="Слой_x0020_1">
  <metadata id="CorelCorpID_0Corel-Layer"/>
  <path class="fil0" d="M0.2252 0.2365c0.0091,-0.0249 0.0197,-0.0466 0.0314,-0.0644 -0.0122,0.0028 -0.024,0.0061 -0.0356,0.0101 -0.0222,0.0196 -0.042,0.0447 -0.0584,0.074 0.0197,-0.0079 0.0407,-0.0145 0.0626,-0.0197z"/>
  <path class="fil0" d="M0.2952 0.2255l0.0001 -0.0006c0.0035,-0.0258 0.0072,-0.0454 0.0111,-0.0604 -0.0082,0.0007 -0.0163,0.0016 -0.0242,0.0029 -0.0133,0.0164 -0.0254,0.0384 -0.0358,0.0647 0.0159,-0.003 0.0322,-0.0052 0.0489,-0.0065z"/>
  <path class="fil0" d="M0.3738 0.5223c-0.0122,0.0002 -0.0245,0.0003 -0.0369,0.0003 -0.0124,0 -0.0247,-0.0001 -0.0369,-0.0003 0.0006,0.0255 0.0015,0.0503 0.0028,0.074 0.0112,0.0005 0.0226,0.0007 0.0341,0.0007 0.0115,0 0.0229,-0.0002 0.0341,-0.0007 0.0013,-0.0237 0.0023,-0.0485 0.0028,-0.074z"/>
  <path class="fil0" d="M0.4554 0.2563c0.0072,0.0228 0.0131,0.0479 0.0178,0.0747 0.0268,0.0047 0.0519,0.0106 0.0747,0.0178 -0.0063,-0.0242 -0.0145,-0.0471 -0.0242,-0.0682 -0.0211,-0.0098 -0.044,-0.0179 -0.0682,-0.0242z"/>
  <path class="fil0" d="M0.3674 0.1644c0.0038,0.015 0.0076,0.0347 0.0111,0.0604l0.0001 0.0006c0.0167,0.0014 0.033,0.0036 0.0489,0.0065 -0.0104,-0.0264 -0.0225,-0.0484 -0.0358,-0.0647 -0.008,-0.0012 -0.0161,-0.0022 -0.0243,-0.0029z"/>
  <path class="fil0" d="M0.6369 0.5221c0.0012,-0.008 0.0022,-0.0161 0.0029,-0.0242 -0.015,0.0038 -0.0347,0.0076 -0.0604,0.0111l-0.0006 0.0001c-0.0014,0.0167 -0.0036,0.033 -0.0065,0.0489 0.0264,-0.0104 0.0484,-0.0225 0.0647,-0.0358z"/>
  <path class="fil0" d="M0.3786 0.7091l-0.0001 0.0006c-0.0035,0.0258 -0.0072,0.0454 -0.0111,0.0604 0.0082,-0.0007 0.0163,-0.0017 0.0243,-0.0029 0.0133,-0.0164 0.0254,-0.0384 0.0358,-0.0647 -0.0159,0.003 -0.0322,0.0052 -0.0489,0.0065z"/>
  <path class="fil0" d="M0.3063 0.7701c-0.0038,-0.015 -0.0076,-0.0347 -0.0111,-0.0604l-0.0001 -0.0006c-0.0167,-0.0014 -0.033,-0.0036 -0.0489,-0.0065 0.0104,0.0264 0.0225,0.0484 0.0358,0.0647 0.008,0.0012 0.0161,0.0022 0.0242,0.0029z"/>
  <path class="fil0" d="M0.4486 0.6981c-0.0091,0.0249 -0.0197,0.0466 -0.0314,0.0644 0.0121,-0.0028 0.024,-0.0061 0.0356,-0.0101 0.0222,-0.0196 0.042,-0.0447 0.0584,-0.074 -0.0197,0.0079 -0.0407,0.0145 -0.0626,0.0197z"/>
  <path class="fil0" d="M0.548 0.293c0.0079,0.0197 0.0145,0.0407 0.0197,0.0626 0.0249,0.0091 0.0466,0.0197 0.0644,0.0314 -0.0028,-0.0121 -0.0061,-0.024 -0.0101,-0.0356 -0.0196,-0.0222 -0.0447,-0.042 -0.074,-0.0584z"/>
  <path class="fil0" d="M0.0951 0.509l-0.0006 -0.0001c-0.0258,-0.0035 -0.0454,-0.0072 -0.0604,-0.0111 0.0007,0.0082 0.0017,0.0163 0.0029,0.0242 0.0164,0.0133 0.0384,0.0254 0.0647,0.0358 -0.003,-0.0159 -0.0052,-0.0322 -0.0065,-0.0489z"/>
  <path class="fil0" d="M0.0518 0.3514c-0.004,0.0116 -0.0073,0.0235 -0.0101,0.0356 0.0178,-0.0118 0.0395,-0.0223 0.0644,-0.0314 0.0052,-0.0219 0.0118,-0.0428 0.0197,-0.0626 -0.0293,0.0164 -0.0543,0.0362 -0.074,0.0584z"/>
  <path class="fil0" d="M0.622 0.5832c0.004,-0.0116 0.0073,-0.0235 0.0101,-0.0356 -0.0178,0.0118 -0.0395,0.0223 -0.0644,0.0314 -0.0052,0.0219 -0.0118,0.0428 -0.0197,0.0626 0.0293,-0.0164 0.0543,-0.0362 0.074,-0.0584z"/>
  <path class="fil0" d="M0.285 0.5954c-0.0013,-0.0235 -0.0022,-0.0481 -0.0028,-0.0734 -0.0253,-0.0005 -0.0499,-0.0015 -0.0734,-0.0028 0.0015,0.0237 0.0041,0.0467 0.0076,0.0686 0.0219,0.0035 0.0449,0.006 0.0686,0.0076z"/>
  <path class="fil0" d="M0.3 0.4123c0.0122,-0.0002 0.0245,-0.0003 0.0369,-0.0003 0.0124,0 0.0247,0.0001 0.0369,0.0003 -0.0006,-0.0255 -0.0015,-0.0503 -0.0028,-0.074 -0.0112,-0.0005 -0.0226,-0.0007 -0.0341,-0.0007 -0.0115,0 -0.0229,0.0003 -0.0341,0.0007 -0.0013,0.0237 -0.0023,0.0485 -0.0028,0.074z"/>
  <path class="fil0" d="M0.1131 0.4233c0.0238,-0.0028 0.0499,-0.0051 0.0778,-0.0069 0.0014,-0.023 0.0036,-0.0452 0.0067,-0.0665 -0.0278,0.0052 -0.0535,0.0118 -0.0766,0.0196 -0.0036,0.0174 -0.0063,0.0353 -0.0079,0.0538z"/>
  <path class="fil0" d="M0.5627 0.4673c0,-0.0087 -0.0003,-0.0174 -0.0008,-0.0259 -0.0238,-0.0029 -0.0501,-0.0052 -0.0782,-0.0071 0.0004,0.0109 0.0006,0.0219 0.0006,0.033 0,0.0112 -0.0002,0.0221 -0.0006,0.033 0.0281,-0.0018 0.0545,-0.0042 0.0782,-0.0071 0.0005,-0.0086 0.0008,-0.0172 0.0008,-0.0259z"/>
  <path class="fil0" d="M0.5478 0.5858c-0.0228,0.0072 -0.0479,0.0132 -0.0747,0.0178 -0.0047,0.0268 -0.0106,0.0519 -0.0178,0.0747 0.0242,-0.0063 0.0471,-0.0145 0.0682,-0.0242 0.0098,-0.0211 0.0179,-0.044 0.0242,-0.0682z"/>
  <path class="fil0" d="M0.2184 0.6782c-0.0072,-0.0228 -0.0132,-0.0479 -0.0178,-0.0747 -0.0268,-0.0047 -0.0519,-0.0106 -0.0747,-0.0178 0.0063,0.0242 0.0145,0.0471 0.0242,0.0682 0.0211,0.0098 0.044,0.0179 0.0682,0.0242z"/>
  <g id="_2361174662400">
   <path class="fil1" d="M0.3744 0.4673c0,-0.0125 -0.0001,-0.0249 -0.0003,-0.0373 -0.0123,-0.0002 -0.0247,-0.0003 -0.0373,-0.0003 -0.0125,0 -0.0249,0.0001 -0.0373,0.0003 -0.0002,0.0123 -0.0003,0.0247 -0.0003,0.0373 0,0.0125 0.0001,0.0249 0.0003,0.0373 0.0123,0.0002 0.0247,0.0003 0.0373,0.0003 0.0125,0 0.0249,-0.0001 0.0373,-0.0003 0.0002,-0.0123 0.0003,-0.0247 0.0003,-0.0373z"/>
   <path class="fil1" d="M0.3133 0.2243c0.0078,-0.0004 0.0157,-0.0006 0.0236,-0.0006 0.0079,0 0.0158,0.0003 0.0236,0.0006 -0.0039,-0.0283 -0.008,-0.0477 -0.0117,-0.0609 -0.0039,-0.0001 -0.0079,-0.0003 -0.0119,-0.0003 -0.004,0 -0.0079,0.0001 -0.0119,0.0003 -0.0037,0.0133 -0.0078,0.0327 -0.0117,0.0609z"/>
   <path class="fil1" d="M0.4171 0.1721c0.0118,0.0178 0.0223,0.0395 0.0314,0.0644 0.0219,0.0052 0.0428,0.0118 0.0626,0.0197 -0.0164,-0.0293 -0.0362,-0.0543 -0.0584,-0.074 -0.0116,-0.004 -0.0235,-0.0073 -0.0356,-0.0101z"/>
   <path class="fil1" d="M0.4666 0.4673c0,-0.0115 -0.0003,-0.0228 -0.0007,-0.0341 -0.0237,-0.0013 -0.0485,-0.0023 -0.074,-0.0028 0.0002,0.0122 0.0003,0.0245 0.0003,0.0369 0,0.0124 -0.0001,0.0247 -0.0003,0.0369 0.0255,-0.0006 0.0503,-0.0015 0.074,-0.0028 0.0005,-0.0112 0.0007,-0.0226 0.0007,-0.0341z"/>
   <path class="fil1" d="M0.465 0.5192c-0.0235,0.0013 -0.0481,0.0022 -0.0734,0.0028 -0.0006,0.0253 -0.0015,0.0499 -0.0028,0.0734 0.0237,-0.0015 0.0467,-0.0041 0.0686,-0.0076 0.0035,-0.0219 0.006,-0.0449 0.0075,-0.0686z"/>
   <path class="fil1" d="M0.4542 0.6066c-0.0212,0.0031 -0.0435,0.0054 -0.0665,0.0067 -0.0018,0.0279 -0.0041,0.054 -0.0069,0.0778 0.0184,-0.0017 0.0364,-0.0043 0.0538,-0.0079 0.0078,-0.0231 0.0145,-0.0488 0.0196,-0.0766z"/>
   <path class="fil1" d="M0.3039 0.6141c0.0018,0.0281 0.0042,0.0545 0.0071,0.0782 0.0086,0.0005 0.0172,0.0008 0.0259,0.0008 0.0087,0 0.0174,-0.0003 0.0259,-0.0008 0.0029,-0.0238 0.0052,-0.0501 0.0071,-0.0782 -0.0109,0.0004 -0.0218,0.0006 -0.033,0.0006 -0.0112,0 -0.0221,-0.0002 -0.033,-0.0006z"/>
   <path class="fil1" d="M0.3808 0.2435c0.0028,0.0238 0.0051,0.0499 0.0069,0.0778 0.023,0.0014 0.0452,0.0036 0.0665,0.0067 -0.0052,-0.0278 -0.0118,-0.0535 -0.0196,-0.0766 -0.0174,-0.0036 -0.0353,-0.0063 -0.0538,-0.0079z"/>
   <path class="fil1" d="M0.5607 0.4233c-0.0017,-0.0184 -0.0043,-0.0364 -0.0079,-0.0538 -0.0231,-0.0078 -0.0488,-0.0145 -0.0766,-0.0196 0.0031,0.0212 0.0054,0.0435 0.0067,0.0665 0.0279,0.0018 0.054,0.0041 0.0778,0.0069z"/>
   <path class="fil1" d="M0.465 0.4154c-0.0015,-0.0237 -0.0041,-0.0467 -0.0075,-0.0686 -0.0219,-0.0035 -0.0449,-0.006 -0.0686,-0.0075 0.0013,0.0235 0.0022,0.0481 0.0028,0.0734 0.0253,0.0005 0.0499,0.0015 0.0734,0.0028z"/>
   <path class="fil1" d="M0.5721 0.3767c0.003,0.0159 0.0052,0.0322 0.0065,0.0489l0.0006 0.0001c0.0258,0.0035 0.0454,0.0072 0.0604,0.0111 -0.0007,-0.0082 -0.0016,-0.0163 -0.0029,-0.0243 -0.0164,-0.0133 -0.0384,-0.0254 -0.0647,-0.0358z"/>
   <path class="fil1" d="M0.6408 0.4792c0.0001,-0.004 0.0003,-0.0079 0.0003,-0.0119 0,-0.004 -0.0001,-0.0079 -0.0003,-0.0119 -0.0133,-0.0037 -0.0327,-0.0078 -0.0609,-0.0117 0.0004,0.0078 0.0006,0.0157 0.0006,0.0236 0,0.0079 -0.0003,0.0158 -0.0006,0.0236 0.0283,-0.0039 0.0477,-0.008 0.0609,-0.0117z"/>
   <path class="fil1" d="M0.3605 0.7102c-0.0078,0.0004 -0.0157,0.0006 -0.0236,0.0006 -0.0079,0 -0.0158,-0.0002 -0.0236,-0.0006 0.0039,0.0283 0.008,0.0477 0.0117,0.061 0.004,0.0001 0.0079,0.0003 0.0119,0.0003 0.004,0 0.0079,-0.0001 0.0119,-0.0003 0.0037,-0.0133 0.0078,-0.0327 0.0117,-0.061z"/>
   <path class="fil1" d="M0.2566 0.7624c-0.0118,-0.0178 -0.0223,-0.0395 -0.0314,-0.0644 -0.0219,-0.0051 -0.0428,-0.0118 -0.0626,-0.0197 0.0164,0.0293 0.0362,0.0543 0.0584,0.074 0.0116,0.004 0.0235,0.0073 0.0356,0.0101z"/>
   <path class="fil1" d="M0.0369 0.4125c-0.0012,0.008 -0.0022,0.0161 -0.0029,0.0243 0.015,-0.0038 0.0347,-0.0076 0.0604,-0.0111l0.0006 -0.0001c0.0014,-0.0167 0.0036,-0.033 0.0065,-0.0489 -0.0264,0.0104 -0.0484,0.0225 -0.0647,0.0358z"/>
   <path class="fil1" d="M0.0329 0.4554c-0.0001,0.004 -0.0003,0.0079 -0.0003,0.0119 0,0.004 0.0001,0.0079 0.0003,0.0119 0.0133,0.0037 0.0327,0.0078 0.061,0.0117 -0.0004,-0.0078 -0.0006,-0.0157 -0.0006,-0.0236 0,-0.0079 0.0003,-0.0158 0.0006,-0.0236 -0.0283,0.0039 -0.0477,0.008 -0.061,0.0117z"/>
   <path class="fil1" d="M0.1258 0.6416c-0.0079,-0.0197 -0.0145,-0.0407 -0.0197,-0.0626 -0.0249,-0.0091 -0.0466,-0.0197 -0.0644,-0.0314 0.0028,0.0121 0.0061,0.024 0.0101,0.0356 0.0196,0.0222 0.0447,0.042 0.074,0.0584z"/>
   <path class="fil1" d="M0.1808 0.7357c-0.0166,-0.02 -0.0313,-0.0431 -0.0437,-0.0686 -0.0256,-0.0124 -0.0487,-0.0271 -0.0686,-0.0437l0.0004 0.0007c0.0237,0.0482 0.063,0.0875 0.1112,0.1112l0.0007 0.0004z"/>
   <path class="fil1" d="M0.0684 0.3112c0.02,-0.0166 0.0431,-0.0313 0.0686,-0.0437 0.0124,-0.0256 0.0271,-0.0487 0.0437,-0.0686l-0.0007 0.0004c-0.0482,0.0237 -0.0875,0.063 -0.1112,0.1112l-0.0004 0.0007z"/>
   <path class="fil1" d="M0.6053 0.6234c-0.02,0.0166 -0.0431,0.0313 -0.0686,0.0437 -0.0124,0.0256 -0.0271,0.0486 -0.0437,0.0686l0.0007 -0.0004c0.0482,-0.0237 0.0875,-0.063 0.1112,-0.1112l0.0004 -0.0007z"/>
   <path class="fil1" d="M0.2071 0.4673c0,0.0115 0.0002,0.0229 0.0007,0.0341 0.0237,0.0013 0.0485,0.0023 0.074,0.0028 -0.0002,-0.0122 -0.0003,-0.0245 -0.0003,-0.0369 0,-0.0124 0.0001,-0.0247 0.0003,-0.0369 -0.0255,0.0006 -0.0503,0.0015 -0.074,0.0028 -0.0005,0.0112 -0.0007,0.0226 -0.0007,0.0341z"/>
   <path class="fil1" d="M0.493 0.1988c0.0166,0.02 0.0313,0.0431 0.0437,0.0686 0.0256,0.0124 0.0486,0.0271 0.0686,0.0437l-0.0004 -0.0007c-0.0237,-0.0482 -0.063,-0.0875 -0.1112,-0.1112l-0.0007 -0.0004z"/>
   <path class="fil1" d="M0.1259 0.3488c0.0228,-0.0072 0.0479,-0.0132 0.0747,-0.0178 0.0047,-0.0268 0.0106,-0.0519 0.0178,-0.0747 -0.0242,0.0063 -0.0471,0.0145 -0.0682,0.0242 -0.0098,0.0211 -0.0179,0.044 -0.0242,0.0682z"/>
   <path class="fil1" d="M0.2392 0.2514c-0.0078,0.0231 -0.0145,0.0488 -0.0196,0.0766 0.0212,-0.0031 0.0435,-0.0054 0.0665,-0.0067 0.0018,-0.0279 0.0041,-0.054 0.0069,-0.0778 -0.0184,0.0017 -0.0364,0.0043 -0.0538,0.0079z"/>
   <path class="fil1" d="M0.285 0.3392c-0.0237,0.0015 -0.0467,0.0041 -0.0686,0.0075 -0.0035,0.0219 -0.006,0.0449 -0.0076,0.0686 0.0235,-0.0013 0.0481,-0.0022 0.0734,-0.0028 0.0005,-0.0253 0.0015,-0.0499 0.0028,-0.0734z"/>
   <path class="fil1" d="M0.3699 0.3204c-0.0018,-0.0281 -0.0042,-0.0545 -0.0071,-0.0782 -0.0086,-0.0005 -0.0172,-0.0008 -0.0259,-0.0008 -0.0087,0 -0.0174,0.0003 -0.0259,0.0008 -0.0029,0.0238 -0.0052,0.0501 -0.0071,0.0782 0.0109,-0.0004 0.0218,-0.0006 0.033,-0.0006 0.0112,0 0.0221,0.0002 0.033,0.0006z"/>
   <path class="fil1" d="M0.2929 0.6911c-0.0028,-0.0238 -0.0051,-0.0499 -0.0069,-0.0778 -0.023,-0.0014 -0.0452,-0.0036 -0.0665,-0.0067 0.0052,0.0278 0.0118,0.0535 0.0196,0.0766 0.0174,0.0036 0.0353,0.0063 0.0538,0.0079z"/>
   <path class="fil1" d="M0.5607 0.5112c-0.0238,0.0028 -0.0499,0.0051 -0.0778,0.0069 -0.0014,0.023 -0.0036,0.0452 -0.0067,0.0665 0.0278,-0.0052 0.0535,-0.0118 0.0766,-0.0196 0.0036,-0.0174 0.0063,-0.0353 0.0079,-0.0538z"/>
   <path class="fil1" d="M0.1976 0.5846c-0.0031,-0.0212 -0.0054,-0.0435 -0.0067,-0.0665 -0.0279,-0.0018 -0.054,-0.0041 -0.0778,-0.0069 0.0017,0.0184 0.0043,0.0364 0.0079,0.0538 0.0231,0.0078 0.0488,0.0145 0.0766,0.0196z"/>
   <path class="fil1" d="M0.111 0.4673c0,0.0087 0.0003,0.0174 0.0007,0.0259 0.0238,0.0029 0.0501,0.0052 0.0782,0.0071 -0.0004,-0.0109 -0.0006,-0.0218 -0.0006,-0.033 0,-0.0111 0.0002,-0.0221 0.0006,-0.033 -0.0281,0.0018 -0.0545,0.0042 -0.0782,0.0071 -0.0004,0.0086 -0.0007,0.0172 -0.0007,0.0259z"/>
   <polygon class="fil1" points="0.6726,0.247 0.6639,0.215 0.6552,0.247 0.6238,0.2572 0.6552,0.2674 0.6639,0.2994 0.6726,0.2674 0.7039,0.2572 "/>
   <polygon class="fil1" points="0.729,0.3141 0.7231,0.2924 0.7172,0.3141 0.6959,0.321 0.7172,0.328 0.7231,0.3497 0.729,0.328 0.7503,0.321 "/>
   <polygon class="fil1" points="0.0368,0.2417 0.0302,0.2176 0.0237,0.2417 -0,0.2494 0.0237,0.2571 0.0302,0.2812 0.0368,0.2571 0.0605,0.2494 "/>
  </g>
  <path class="fil2" d="M0.2911 0.1352c0.0319,-0.0041 0.0629,-0.004 0.0931,0 0.0054,0.0007 0.01,0.0045 0.01,0.01l0 0c0,0.0055 -0.0046,0.0109 -0.01,0.01 -0.0304,-0.005 -0.0615,-0.0049 -0.0931,0 -0.0054,0.0008 -0.01,-0.0045 -0.01,-0.01l0 0c0,-0.0055 0.0045,-0.0093 0.01,-0.01z"/>
  <path class="fil2" d="M0.3385 0.0899c0.0233,0 0.0422,0.0189 0.0422,0.0422 0,0.0008 -0,0.0017 -0.0001,0.0025 -0.0038,-0.0005 -0.0077,-0.0009 -0.0116,-0.0012 0,-0.0004 0,-0.0009 0,-0.0013 0,-0.0169 -0.0137,-0.0306 -0.0306,-0.0306 -0.0169,0 -0.0306,0.0137 -0.0306,0.0306 0,0.0004 0,0.0009 0,0.0013 -0.0038,0.0003 -0.0077,0.0007 -0.0116,0.0012 -0,-0.0008 -0.0001,-0.0017 -0.0001,-0.0025 0,-0.0233 0.0189,-0.0422 0.0422,-0.0422z"/>
  <rect class="fil2" x="0.3238" width="0.0299" height="0.1196" rx="0.015" ry="0.015"/>
 </g>
</svg>
