<svg width="175" height="105" viewBox="0 0 175 105" fill="none" xmlns="http://www.w3.org/2000/svg">
<path d="M109.949 80.7369C111.401 79.2693 113.448 78.3505 115.691 78.3505C120.175 78.3505 123.82 81.9795 123.82 86.4808C123.82 88.7234 122.917 90.7547 121.432 92.2222C119.965 93.6905 117.933 94.6086 115.691 94.6086C111.207 94.6086 107.561 90.9644 107.561 86.4799C107.561 84.2373 108.464 82.222 109.949 80.7369ZM127.037 80.3232C126.441 79.2268 125.69 78.226 124.816 77.3496C122.48 75.0154 119.254 73.5713 115.69 73.5713C112.127 73.5713 108.9 75.0154 106.565 77.3496C105.69 78.2268 104.94 79.2276 104.343 80.3232C103.947 81.0549 103.618 81.8301 103.366 82.6381C102.989 83.8502 102.787 85.1386 102.787 86.4751C102.787 93.6014 108.564 99.379 115.691 99.379C122.818 99.379 128.595 93.6014 128.595 86.4751C128.595 85.1386 128.392 83.8494 128.015 82.6381C127.763 81.8301 127.435 81.0549 127.037 80.3232Z" fill="#304952"/>
<path d="M123.82 86.4808C123.82 81.9786 120.175 78.3504 115.691 78.3504C113.448 78.3504 111.401 79.2701 109.949 80.7368C108.464 82.222 107.561 84.2381 107.561 86.4808C107.561 90.9644 111.207 94.6094 115.691 94.6094C117.933 94.6094 119.966 93.6905 121.432 92.223C122.917 90.7547 123.82 88.7226 123.82 86.4808Z" fill="#A5E8E6"/>
<path d="M18.4247 80.7369C19.8761 79.2693 21.9251 78.3505 24.1669 78.3505C28.6514 78.3505 32.2972 81.9795 32.2972 86.4808C32.2972 88.7234 31.3928 90.7547 29.91 92.2222C28.4425 93.6905 26.4087 94.6086 24.1677 94.6086C19.6833 94.6086 16.0375 90.9644 16.0375 86.4799C16.0375 84.2373 16.9403 82.222 18.4247 80.7369ZM35.5142 80.3232C34.9174 79.2268 34.1671 78.226 33.2924 77.3496C30.9558 75.0154 27.7301 73.5713 24.1669 73.5713C20.6038 73.5713 17.378 75.0154 15.0422 77.3496C14.1675 78.2268 13.4165 79.2276 12.8205 80.3232C12.4237 81.0549 12.0944 81.8301 11.8438 82.6381C11.4663 83.8502 11.2639 85.1386 11.2639 86.4751C11.2639 93.6014 17.0415 99.379 24.1677 99.379C31.2948 99.379 37.0716 93.6014 37.0716 86.4751C37.0716 85.1386 36.8684 83.8494 36.4925 82.6381C36.2411 81.8301 35.9102 81.0549 35.5142 80.3232Z" fill="#304952"/>
<path d="M32.2964 86.4808C32.2964 81.9786 28.6506 78.3504 24.1661 78.3504C21.9243 78.3504 19.8753 79.2701 18.4238 80.7368C16.9395 82.222 16.0358 84.2381 16.0358 86.4808C16.0358 90.9644 19.6817 94.6094 24.1661 94.6094C26.4079 94.6094 28.4409 93.6905 29.9084 92.223C31.3912 90.7547 32.2964 88.7226 32.2964 86.4808Z" fill="#A5E8E6"/>
<path d="M108.632 24.2505H126.04C129.155 24.2505 132.097 25.6939 134.003 28.159L143.993 41.0766L165.601 52.3668C169 54.1419 171.13 57.6585 171.13 61.4923V78.5914H108.631L108.632 24.2505Z" fill="#7EDAE6"/>
<path d="M56.0005 0.162476H103.541C105.488 0.162476 107.068 1.74162 107.068 3.68865L107.145 78.6453L8.46138 78.6693C6.51435 78.6693 4.93521 77.091 4.93521 75.1432V3.68865C4.93521 1.74162 6.51435 0.162476 8.46138 0.162476H56.0005Z" fill="#7EDAE6"/>
<path d="M18.2319 0.162448H28.6996C30.2626 0.162448 31.5293 1.42916 31.5293 2.99225V75.8395C31.5293 77.4026 30.2626 78.6685 28.6996 78.6685H4.93521V3.70872C4.93521 1.75045 6.52319 0.161652 8.48226 0.161652L18.2319 0.162448Z" fill="#A5E8E6"/>
<path d="M16.8286 0.162476H17.8833V78.6685H15.774V0.162476H16.8286Z" fill="#304952"/>
<path d="M170.817 77.5906L3.53437 77.6131C1.89418 77.6131 0.564026 78.944 0.564026 80.5834V84.214C0.564026 85.855 1.89417 87.1844 3.53517 87.1844L170.817 87.1619C172.8 87.1619 174.406 85.5554 174.406 83.5739V81.1794C174.406 79.1978 172.8 77.5906 170.817 77.5906Z" fill="#304952"/>
<path d="M29.3028 77.5906L3.53437 77.6131C1.89418 77.6131 0.564026 78.944 0.564026 80.5834V84.214C0.564026 85.855 1.89417 87.1844 3.53517 87.1844L29.3028 87.1619C31.2843 87.1619 32.8916 85.5554 32.8916 83.5739V81.1794C32.8916 79.1978 31.2843 77.5906 29.3028 77.5906Z" fill="#304952"/>
<path d="M135.862 45.9867L128.724 31.9945C128.049 30.6707 126.688 29.837 125.201 29.837H116.81V45.9867C116.81 45.9867 137.408 45.9867 135.862 45.9867Z" fill="white"/>
<path d="M22.1894 83.8936H29.0739V80.0011H22.1894V83.8936Z" fill="#A5E8E6"/>
<path d="M2.3737 83.8936H6.63725V80.0011H2.3737V83.8936Z" fill="#A5E8E6"/>
<path d="M38.4757 85.9787C39.9271 84.5104 41.9753 83.5923 44.218 83.5923C48.7016 83.5923 52.3482 87.2213 52.3482 91.7226C52.3482 93.9644 51.4438 95.9958 49.9603 97.4649C48.4927 98.9332 46.4606 99.8513 44.2188 99.8513C39.7343 99.8513 36.0885 96.2071 36.0885 91.7226C36.0885 89.48 36.9905 87.4623 38.4757 85.9787ZM55.5644 85.5643C54.9684 84.467 54.2174 83.4662 53.3427 82.5907C51.0077 80.2557 47.7811 78.8123 44.2172 78.8123C40.6532 78.8123 37.4283 80.2557 35.0917 82.5907C34.2161 83.4662 33.4659 84.467 32.8699 85.5643C32.4731 86.296 32.1438 87.0703 31.8924 87.8792C31.5157 89.0912 31.3125 90.3804 31.3125 91.7162C31.3125 98.8424 37.0901 104.62 44.2172 104.62C51.3434 104.62 57.121 98.8424 57.121 91.7162C57.121 90.3796 56.9178 89.0904 56.5419 87.8792C56.2897 87.0703 55.9612 86.2968 55.5644 85.5643Z" fill="#304952"/>
<path d="M52.3474 91.7218C52.3474 87.2205 48.7016 83.5915 44.2172 83.5915C41.9745 83.5915 39.9263 84.5096 38.4749 85.9779C36.9897 87.4623 36.0869 89.4792 36.0869 91.721C36.0869 96.2046 39.7327 99.8497 44.2172 99.8497C46.4598 99.8497 48.4912 98.9316 49.9587 97.4633C51.443 95.9942 52.3474 93.9636 52.3474 91.7218Z" fill="#A5E8E6"/>
<path d="M126.99 85.9787C128.442 84.5104 130.492 83.5923 132.732 83.5923C137.218 83.5923 140.863 87.2213 140.863 91.7226C140.863 93.9644 139.96 95.9958 138.476 97.4649C137.007 98.9332 134.977 99.8513 132.733 99.8513C128.249 99.8513 124.605 96.2071 124.605 91.7226C124.605 89.48 125.506 87.4623 126.99 85.9787ZM144.08 85.5643C143.485 84.467 142.733 83.4662 141.858 82.5907C139.523 80.2557 136.297 78.8123 132.732 78.8123C129.171 78.8123 125.944 80.2557 123.608 82.5907C122.732 83.4662 121.983 84.467 121.387 85.5643C120.989 86.296 120.661 87.0703 120.409 87.8792C120.033 89.0912 119.829 90.3804 119.829 91.7162C119.829 98.8424 125.608 104.62 132.733 104.62C139.861 104.62 145.639 98.8424 145.639 91.7162C145.639 90.3796 145.435 89.0904 145.059 87.8792C144.806 87.0703 144.478 86.2968 144.08 85.5643Z" fill="#304952"/>
<path d="M132.732 99.8505C134.977 99.8505 137.007 98.9324 138.475 97.4641C139.959 95.995 140.862 93.9636 140.862 91.7218C140.862 87.2205 137.218 83.5915 132.731 83.5915C130.491 83.5915 128.441 84.5096 126.989 85.9779C125.506 87.4623 124.603 89.4792 124.603 91.721C124.603 96.2046 128.249 99.8505 132.732 99.8505Z" fill="#A5E8E6"/>
<path d="M171.131 61.4923H168.592V71.3158H171.131V61.4923Z" fill="#304952"/>
<path d="M107.068 77.5906H109.977V24.2505H107.068V77.5906Z" fill="#304952"/>
<path d="M69.6 63.0232C82.7491 63.0232 93.4086 52.3638 93.4086 39.2147C93.4086 26.0656 82.7491 15.4062 69.6 15.4062C56.4509 15.4062 45.7915 26.0656 45.7915 39.2147C45.7915 52.3638 56.4509 63.0232 69.6 63.0232Z" fill="#304952"/>
<path fill-rule="evenodd" clip-rule="evenodd" d="M60.2906 24.253H66.6385V33.7744H76.1592V24.253H82.5071V49.643H76.1592V40.1223H66.6385V49.643H60.2906V24.253Z" fill="#7EDAE6"/>
<path fill-rule="evenodd" clip-rule="evenodd" d="M63.4642 36.948H72.9856L76.1592 33.7744H66.6385L63.4642 36.948Z" fill="white"/>
<path fill-rule="evenodd" clip-rule="evenodd" d="M63.8047 36.8074H72.927L75.8186 33.9158H66.6963L63.8047 36.8074Z" fill="#7EDAE6"/>
<path fill-rule="evenodd" clip-rule="evenodd" d="M63.4642 36.948V27.4265L66.6385 24.253V33.7744L63.4642 36.948Z" fill="white"/>
<path fill-rule="evenodd" clip-rule="evenodd" d="M63.6055 36.6074L66.4971 33.7166V24.5943L63.6055 27.4851V36.6074Z" fill="#7EDAE6"/>
<path fill-rule="evenodd" clip-rule="evenodd" d="M72.9856 36.948V27.4265L76.1592 24.253V33.7744L72.9856 36.948Z" fill="#7EDAE6"/>
<path fill-rule="evenodd" clip-rule="evenodd" d="M79.3328 52.8062L79.2243 27.5245L82.3987 24.351V49.741L79.3328 52.8062Z" fill="#7EDAE6"/>
<path fill-rule="evenodd" clip-rule="evenodd" d="M57.117 52.8174V27.4265L60.2906 24.253V49.643L57.117 52.8174Z" fill="#7EDAE6"/>
<path fill-rule="evenodd" clip-rule="evenodd" d="M57.117 27.4265H63.4642V36.948H72.9856V27.4265H79.3335L79.3263 52.8166H72.9856V43.2959H63.4642V52.8166H57.117V27.4265Z" fill="#D9F3F7"/>
<path fill-rule="evenodd" clip-rule="evenodd" d="M57.117 52.8174V27.4265H60.2906V49.643L57.117 52.8174Z" fill="#A5E8E6"/>
<path fill-rule="evenodd" clip-rule="evenodd" d="M72.9784 52.8174V43.2959L76.152 40.1215V49.643L72.9784 52.8174ZM73.0957 37.0661L72.9784 27.4273H76.152V33.7752L73.0957 37.0661Z" fill="#A5E8E6"/>
<path fill-rule="evenodd" clip-rule="evenodd" d="M57.117 52.8174H63.4642L66.6385 49.643H60.2906L57.117 52.8174Z" fill="white"/>
<path fill-rule="evenodd" clip-rule="evenodd" d="M57.1098 52.8174H63.4569L66.6313 49.643H60.2834L57.1098 52.8174Z" fill="#7EDAE6"/>
<path fill-rule="evenodd" clip-rule="evenodd" d="M63.4642 52.8174V49.643H66.6385L63.4642 52.8174Z" fill="#3ACFE0"/>
<path fill-rule="evenodd" clip-rule="evenodd" d="M72.9856 52.8174H79.3264L82.5071 49.6438H76.1592L72.9856 52.8174Z" fill="white"/>
<path fill-rule="evenodd" clip-rule="evenodd" d="M72.9856 52.8166H79.3264L82.5071 49.643H76.1592L72.9856 52.8166Z" fill="#7EDAE6"/>
<path fill-rule="evenodd" clip-rule="evenodd" d="M79.3263 52.8174V49.643H82.4999L79.3263 52.8174Z" fill="#3ACFE0"/>
<path fill-rule="evenodd" clip-rule="evenodd" d="M79.3263 52.8166L79.3335 27.4265L82.5071 24.2521V49.643L79.3263 52.8166ZM79.4661 52.4793L82.3665 49.5852V24.5903L79.4733 27.4843L79.4661 52.4793Z" fill="white"/>
<path fill-rule="evenodd" clip-rule="evenodd" d="M63.3196 52.8166L63.3172 43.2951L66.6385 40.1215V49.643L63.4569 52.8166H63.3196ZM63.4545 52.615L66.4988 49.5852V40.4597L63.465 43.2959L63.4545 52.615Z" fill="white"/>
<path fill-rule="evenodd" clip-rule="evenodd" d="M63.3284 43.2413L72.9784 43.2951L76.1519 40.1223H66.6313L63.3284 43.2413Z" fill="#A5E8E6"/>
<path fill-rule="evenodd" clip-rule="evenodd" d="M57.1098 27.4265H63.4569V36.948H72.9784V27.4265H79.3335L79.3263 52.8166H72.9784V43.2951H63.4569V52.8166H57.1098V27.4265ZM57.2496 27.5671V52.6768H63.3171V43.2951C63.3171 43.218 63.3798 43.1553 63.4569 43.1553H72.9784C73.0555 43.1553 73.119 43.218 73.119 43.2951V52.6768H79.1874V27.5671H73.119V36.948C73.119 37.0251 73.0555 37.0886 72.9784 37.0886H63.4569C63.3798 37.0886 63.3171 37.0251 63.3171 36.948V27.5671H57.2496Z" fill="white"/>
</svg>
