<svg width="153" height="118" viewBox="0 0 153 118" fill="none" xmlns="http://www.w3.org/2000/svg">
<path d="M145.247 2.04984H6.98328V105.35H145.247V2.04984Z" fill="#A5E8E6"/>
<path fill-rule="evenodd" clip-rule="evenodd" d="M6.98328 2.04984V105.35H88.6974L51.5738 2.04984H6.98328Z" fill="#7EDAE6"/>
<path fill-rule="evenodd" clip-rule="evenodd" d="M0.0192871 116.575L9.4243 109.886L11.4629 110.331L2.57436 117.151L0.0192871 116.575Z" fill="#213340"/>
<path fill-rule="evenodd" clip-rule="evenodd" d="M0.0177002 116.507C3.15271 114.277 6.28771 112.047 9.42272 109.818C10.1023 109.966 10.7818 110.114 11.4613 110.263C8.4982 112.537 5.53589 114.81 2.57277 117.084C1.72135 116.892 0.869124 116.7 0.0177002 116.507Z" fill="#223542"/>
<path fill-rule="evenodd" clip-rule="evenodd" d="M0.016098 116.438C3.1511 114.208 6.28611 111.978 9.42111 109.749C10.1006 109.897 10.7802 110.045 11.4597 110.193C8.4966 112.467 5.53429 114.741 2.57117 117.015C1.71975 116.823 0.867522 116.631 0.016098 116.438Z" fill="#243743"/>
<path fill-rule="evenodd" clip-rule="evenodd" d="M0.0136871 116.37C3.14869 114.14 6.2837 111.91 9.4187 109.68C10.0982 109.829 10.7778 109.977 11.4573 110.125C8.49419 112.399 5.53188 114.673 2.56876 116.946C1.71734 116.754 0.865111 116.562 0.0136871 116.37Z" fill="#253945"/>
<path fill-rule="evenodd" clip-rule="evenodd" d="M0.0120773 116.301C3.14708 114.071 6.28209 111.842 9.41709 109.612C10.0966 109.761 10.7762 109.908 11.4557 110.057C8.49258 112.331 5.53027 114.605 2.56715 116.878C1.71573 116.686 0.863501 116.494 0.0120773 116.301Z" fill="#263B47"/>
<path fill-rule="evenodd" clip-rule="evenodd" d="M0.0104752 116.233C3.14548 114.003 6.28049 111.773 9.41549 109.543C10.095 109.691 10.7746 109.84 11.4541 109.988C8.49097 112.262 5.52866 114.536 2.56555 116.809C1.71413 116.617 0.861899 116.426 0.0104752 116.233Z" fill="#283D48"/>
<path fill-rule="evenodd" clip-rule="evenodd" d="M0.00886536 116.164C3.14387 113.934 6.27888 111.704 9.41388 109.475C10.0934 109.623 10.7729 109.771 11.4525 109.92C8.48936 112.194 5.52705 114.467 2.56394 116.741C1.71252 116.549 0.860289 116.357 0.00886536 116.164Z" fill="#293F4A"/>
<path fill-rule="evenodd" clip-rule="evenodd" d="M0.00726318 116.096C3.14227 113.866 6.27727 111.636 9.41228 109.406C10.0918 109.554 10.7713 109.703 11.4509 109.85C8.48776 112.124 5.52545 114.398 2.56234 116.672C1.71091 116.48 0.858687 116.288 0.00726318 116.096Z" fill="#2B414B"/>
<path fill-rule="evenodd" clip-rule="evenodd" d="M0.00565338 116.027C3.14066 113.798 6.27566 111.568 9.41067 109.337C10.0902 109.486 10.7697 109.634 11.4493 109.782C8.48615 112.056 5.52384 114.33 2.56073 116.603C1.7093 116.411 0.857077 116.22 0.00565338 116.027Z" fill="#2C434D"/>
<path fill-rule="evenodd" clip-rule="evenodd" d="M0.00405121 115.958C3.13906 113.729 6.27406 111.499 9.40907 109.268C10.0886 109.417 10.7681 109.565 11.4477 109.713C8.48455 111.987 5.52224 114.261 2.55912 116.534C1.7077 116.342 0.855475 116.151 0.00405121 115.958Z" fill="#2D454F"/>
<path fill-rule="evenodd" clip-rule="evenodd" d="M0.00244141 115.89C3.13745 113.66 6.27245 111.43 9.40746 109.2C10.087 109.348 10.7665 109.497 11.4461 109.645C8.48294 111.919 5.52063 114.193 2.55751 116.466C1.70609 116.274 0.853865 116.083 0.00244141 115.89Z" fill="#2F4750"/>
<path fill-rule="evenodd" clip-rule="evenodd" d="M0 115.822L9.40502 109.132L11.4436 109.577L2.55588 116.398L0 115.822Z" fill="#304952"/>
<path fill-rule="evenodd" clip-rule="evenodd" d="M4.93347 112.624V0H6.98331V112.624C6.33912 113.102 5.65798 113.131 4.93347 112.624Z" fill="#304952"/>
<path fill-rule="evenodd" clip-rule="evenodd" d="M152.211 115.951L142.806 109.261L140.768 109.707L149.656 116.527L152.211 115.951Z" fill="#213340"/>
<path fill-rule="evenodd" clip-rule="evenodd" d="M152.214 115.882C149.079 113.652 145.944 111.422 142.809 109.193C142.129 109.341 141.45 109.49 140.77 109.638C143.733 111.912 146.695 114.185 149.659 116.458C150.511 116.266 151.362 116.075 152.214 115.882Z" fill="#223542"/>
<path fill-rule="evenodd" clip-rule="evenodd" d="M152.215 115.814C149.08 113.584 145.945 111.354 142.81 109.124C142.131 109.273 141.451 109.422 140.772 109.569C143.735 111.843 146.697 114.116 149.66 116.39C150.512 116.198 151.364 116.006 152.215 115.814Z" fill="#243743"/>
<path fill-rule="evenodd" clip-rule="evenodd" d="M152.217 115.745C149.082 113.516 145.947 111.286 142.812 109.056C142.132 109.205 141.453 109.353 140.773 109.501C143.736 111.775 146.699 114.048 149.662 116.321C150.514 116.129 151.365 115.938 152.217 115.745Z" fill="#253945"/>
<path fill-rule="evenodd" clip-rule="evenodd" d="M152.218 115.676C149.083 113.447 145.948 111.217 142.813 108.987C142.134 109.136 141.454 109.284 140.775 109.432C143.738 111.706 146.7 113.979 149.663 116.252C150.516 116.06 151.367 115.869 152.218 115.676Z" fill="#263B47"/>
<path fill-rule="evenodd" clip-rule="evenodd" d="M152.22 115.608C149.085 113.378 145.95 111.149 142.815 108.918C142.136 109.067 141.456 109.215 140.776 109.363C143.74 111.637 146.702 113.911 149.665 116.184C150.517 115.992 151.369 115.801 152.22 115.608Z" fill="#283D48"/>
<path fill-rule="evenodd" clip-rule="evenodd" d="M152.222 115.54C149.087 113.31 145.952 111.08 142.817 108.85C142.137 108.999 141.458 109.148 140.778 109.295C143.741 111.569 146.703 113.843 149.667 116.116C150.519 115.924 151.37 115.733 152.222 115.54Z" fill="#293F4A"/>
<path fill-rule="evenodd" clip-rule="evenodd" d="M152.223 115.471C149.088 113.241 145.953 111.011 142.818 108.781C142.139 108.929 141.459 109.078 140.78 109.226C143.743 111.5 146.705 113.773 149.668 116.047C150.52 115.855 151.372 115.663 152.223 115.471Z" fill="#2B414B"/>
<path fill-rule="evenodd" clip-rule="evenodd" d="M152.225 115.402C149.09 113.173 145.955 110.943 142.82 108.712C142.14 108.861 141.461 109.01 140.781 109.157C143.744 111.431 146.707 113.705 149.67 115.978C150.522 115.786 151.373 115.595 152.225 115.402Z" fill="#2C434D"/>
<path fill-rule="evenodd" clip-rule="evenodd" d="M152.227 115.334C149.092 113.104 145.957 110.875 142.822 108.644C142.143 108.793 141.463 108.941 140.784 109.089C143.747 111.363 146.709 113.637 149.672 115.91C150.524 115.718 151.376 115.527 152.227 115.334Z" fill="#2D454F"/>
<path fill-rule="evenodd" clip-rule="evenodd" d="M152.228 115.265C149.093 113.035 145.958 110.806 142.823 108.575C142.144 108.724 141.464 108.872 140.784 109.02C143.748 111.294 146.71 113.568 149.673 115.841C150.525 115.649 151.377 115.458 152.228 115.265Z" fill="#2F4750"/>
<path fill-rule="evenodd" clip-rule="evenodd" d="M152.231 115.197L142.826 108.508L140.787 108.953L149.675 115.774L152.231 115.197Z" fill="#304952"/>
<path fill-rule="evenodd" clip-rule="evenodd" d="M147.297 112.002V0.000808716H145.247V112.002C145.891 112.478 146.573 112.506 147.297 112.002Z" fill="#304952"/>
<path d="M147.297 0.000808716H4.93347V2.05065H147.297V0.000808716Z" fill="#304952"/>
<path d="M9.67815 4.86115C10.1404 4.86115 10.5151 4.48643 10.5151 4.02419C10.5151 3.56194 10.1404 3.18723 9.67815 3.18723C9.21591 3.18723 8.84119 3.56194 8.84119 4.02419C8.84119 4.48643 9.21591 4.86115 9.67815 4.86115Z" fill="white"/>
<path d="M23.5724 4.86115C24.0346 4.86115 24.4093 4.48643 24.4093 4.02419C24.4093 3.56194 24.0346 3.18723 23.5724 3.18723C23.1101 3.18723 22.7354 3.56194 22.7354 4.02419C22.7354 4.48643 23.1101 4.86115 23.5724 4.86115Z" fill="white"/>
<path d="M37.547 4.86115C38.0092 4.86115 38.384 4.48643 38.384 4.02419C38.384 3.56194 38.0092 3.18723 37.547 3.18723C37.0847 3.18723 36.71 3.56194 36.71 4.02419C36.71 4.48643 37.0847 4.86115 37.547 4.86115Z" fill="white"/>
<path d="M58.4446 4.86115C58.9069 4.86115 59.2816 4.48643 59.2816 4.02419C59.2816 3.56194 58.9069 3.18723 58.4446 3.18723C57.9824 3.18723 57.6077 3.56194 57.6077 4.02419C57.6077 4.48643 57.9824 4.86115 58.4446 4.86115Z" fill="white"/>
<path d="M76.1486 4.86115C76.6109 4.86115 76.9856 4.48643 76.9856 4.02419C76.9856 3.56194 76.6109 3.18723 76.1486 3.18723C75.6864 3.18723 75.3116 3.56194 75.3116 4.02419C75.3116 4.48643 75.6864 4.86115 76.1486 4.86115Z" fill="white"/>
<path d="M93.5329 4.86115C93.9951 4.86115 94.3699 4.48643 94.3699 4.02419C94.3699 3.56194 93.9951 3.18723 93.5329 3.18723C93.0706 3.18723 92.6959 3.56194 92.6959 4.02419C92.6959 4.48643 93.0706 4.86115 93.5329 4.86115Z" fill="white"/>
<path d="M111.425 4.86115C111.887 4.86115 112.262 4.48643 112.262 4.02419C112.262 3.56194 111.887 3.18723 111.425 3.18723C110.963 3.18723 110.588 3.56194 110.588 4.02419C110.588 4.48643 110.963 4.86115 111.425 4.86115Z" fill="white"/>
<path d="M129.235 4.86115C129.697 4.86115 130.072 4.48643 130.072 4.02419C130.072 3.56194 129.697 3.18723 129.235 3.18723C128.773 3.18723 128.398 3.56194 128.398 4.02419C128.398 4.48643 128.773 4.86115 129.235 4.86115Z" fill="white"/>
<path d="M143.145 4.86115C143.607 4.86115 143.982 4.48643 143.982 4.02419C143.982 3.56194 143.607 3.18723 143.145 3.18723C142.683 3.18723 142.308 3.56194 142.308 4.02419C142.308 4.48643 142.683 4.86115 143.145 4.86115Z" fill="white"/>
<path d="M9.88698 0.000808716H9.4693V4.02418H9.88698V0.000808716Z" fill="#CCCCCC"/>
<path d="M23.7804 0.000808716H23.3628V4.02418H23.7804V0.000808716Z" fill="#CCCCCC"/>
<path d="M37.7558 0.000808716H37.3382V4.02418H37.7558V0.000808716Z" fill="#CCCCCC"/>
<path d="M58.6535 0.000808716H58.2358V4.02418H58.6535V0.000808716Z" fill="#CCCCCC"/>
<path d="M76.3575 0.000808716H75.9398V4.02418H76.3575V0.000808716Z" fill="#CCCCCC"/>
<path d="M93.741 0.000808716H93.3233V4.02418H93.741V0.000808716Z" fill="#CCCCCC"/>
<path d="M111.634 0.000808716H111.216V4.02418H111.634V0.000808716Z" fill="#CCCCCC"/>
<path d="M129.444 0.000808716H129.026V4.02418H129.444V0.000808716Z" fill="#CCCCCC"/>
<path d="M143.354 0.000808716H142.936V4.02418H143.354V0.000808716Z" fill="#CCCCCC"/>
<path d="M142.437 17.4197C142.437 16.9576 142.812 16.583 143.274 16.583C143.736 16.583 144.11 16.9576 144.11 17.4197C144.11 17.8817 143.736 18.2563 143.274 18.2563C142.812 18.2563 142.437 17.8817 142.437 17.4197Z" fill="white"/>
<path d="M147.297 17.2111V17.6285L143.274 17.6285V17.2111L147.297 17.2111Z" fill="#CCCCCC"/>
<path d="M142.437 34.9188C142.437 34.4567 142.812 34.0821 143.274 34.0821C143.736 34.0821 144.11 34.4567 144.11 34.9188C144.11 35.3809 143.736 35.7555 143.274 35.7555C142.812 35.7555 142.437 35.3809 142.437 34.9188Z" fill="white"/>
<path d="M147.297 34.7103V35.1277L143.274 35.1277V34.7103L147.297 34.7103Z" fill="#CCCCCC"/>
<path d="M142.437 52.834C142.437 52.372 142.812 51.9974 143.274 51.9974C143.736 51.9974 144.11 52.372 144.11 52.834C144.11 53.2961 143.736 53.6707 143.274 53.6707C142.812 53.6707 142.437 53.2961 142.437 52.834Z" fill="white"/>
<path d="M147.297 52.6255V53.0429L143.274 53.0429V52.6255L147.297 52.6255Z" fill="#CCCCCC"/>
<path d="M142.437 70.4641C142.437 70.002 142.812 69.6275 143.274 69.6275C143.736 69.6275 144.11 70.002 144.11 70.4641C144.11 70.9262 143.736 71.3008 143.274 71.3008C142.812 71.3008 142.437 70.9262 142.437 70.4641Z" fill="white"/>
<path d="M147.297 70.2564V70.6738L143.274 70.6738V70.2564L147.297 70.2564Z" fill="#CCCCCC"/>
<path d="M142.437 88.6316C142.437 88.1695 142.812 87.7949 143.274 87.7949C143.736 87.7949 144.11 88.1695 144.11 88.6316C144.11 89.0937 143.736 89.4683 143.274 89.4683C142.812 89.4683 142.437 89.0937 142.437 88.6316Z" fill="white"/>
<path d="M147.297 88.4231V88.8404L143.274 88.8404V88.4231L147.297 88.4231Z" fill="#CCCCCC"/>
<path d="M9.7935 18.3691C9.7935 17.907 9.4189 17.5324 8.95681 17.5324C8.49472 17.5324 8.12012 17.907 8.12012 18.3691C8.12012 18.8312 8.49472 19.2057 8.95681 19.2057C9.4189 19.2057 9.7935 18.8312 9.7935 18.3691Z" fill="white"/>
<path d="M9.7935 35.8682C9.7935 35.4061 9.4189 35.0315 8.95681 35.0315C8.49472 35.0315 8.12012 35.4061 8.12012 35.8682C8.12012 36.3303 8.49472 36.7049 8.95681 36.7049C9.4189 36.7049 9.7935 36.3303 9.7935 35.8682Z" fill="white"/>
<path d="M9.7935 53.7827C9.7935 53.3206 9.4189 52.946 8.95681 52.946C8.49472 52.946 8.12012 53.3206 8.12012 53.7827C8.12012 54.2447 8.49472 54.6193 8.95681 54.6193C9.4189 54.6193 9.7935 54.2447 9.7935 53.7827Z" fill="white"/>
<path d="M9.7935 71.4135C9.7935 70.9515 9.4189 70.5769 8.95681 70.5769C8.49472 70.5769 8.12012 70.9515 8.12012 71.4135C8.12012 71.8756 8.49472 72.2502 8.95681 72.2502C9.4189 72.2502 9.7935 71.8756 9.7935 71.4135Z" fill="white"/>
<path d="M9.7935 89.581C9.7935 89.1189 9.4189 88.7443 8.95681 88.7443C8.49472 88.7443 8.12012 89.1189 8.12012 89.581C8.12012 90.0431 8.49472 90.4177 8.95681 90.4177C9.4189 90.4177 9.7935 90.0431 9.7935 89.581Z" fill="white"/>
<path d="M4.93372 18.1606L4.93372 18.5779L8.95683 18.5779L8.95683 18.1606L4.93372 18.1606Z" fill="#CCCCCC"/>
<path d="M4.93372 35.6597L4.93372 36.0771L8.95683 36.0771L8.95683 35.6597L4.93372 35.6597Z" fill="#CCCCCC"/>
<path d="M4.93372 53.5749L4.93372 53.9923L8.95683 53.9923L8.95683 53.5749L4.93372 53.5749Z" fill="#CCCCCC"/>
<path d="M4.93372 71.205L4.93372 71.6224L8.95683 71.6224L8.95683 71.205L4.93372 71.205Z" fill="#CCCCCC"/>
<path d="M4.93372 89.3725L4.93372 89.7898L8.95683 89.7898L8.95683 89.3725L4.93372 89.3725Z" fill="#CCCCCC"/>
<path d="M9.28619 104.213C9.74843 104.213 10.1231 103.839 10.1231 103.376C10.1231 102.914 9.74843 102.54 9.28619 102.54C8.82394 102.54 8.44922 102.914 8.44922 103.376C8.44922 103.839 8.82394 104.213 9.28619 104.213Z" fill="white"/>
<path d="M23.1796 104.213C23.6419 104.213 24.0166 103.839 24.0166 103.376C24.0166 102.914 23.6419 102.54 23.1796 102.54C22.7174 102.54 22.3427 102.914 22.3427 103.376C22.3427 103.839 22.7174 104.213 23.1796 104.213Z" fill="white"/>
<path d="M37.155 104.213C37.6173 104.213 37.992 103.839 37.992 103.376C37.992 102.914 37.6173 102.54 37.155 102.54C36.6928 102.54 36.3181 102.914 36.3181 103.376C36.3181 103.839 36.6928 104.213 37.155 104.213Z" fill="white"/>
<path d="M58.0527 104.213C58.5149 104.213 58.8896 103.839 58.8896 103.376C58.8896 102.914 58.5149 102.54 58.0527 102.54C57.5904 102.54 57.2157 102.914 57.2157 103.376C57.2157 103.839 57.5904 104.213 58.0527 104.213Z" fill="white"/>
<path d="M75.7558 104.213C76.2181 104.213 76.5928 103.839 76.5928 103.376C76.5928 102.914 76.2181 102.54 75.7558 102.54C75.2936 102.54 74.9189 102.914 74.9189 103.376C74.9189 103.839 75.2936 104.213 75.7558 104.213Z" fill="white"/>
<path d="M93.1401 104.213C93.6024 104.213 93.9771 103.839 93.9771 103.376C93.9771 102.914 93.6024 102.54 93.1401 102.54C92.6779 102.54 92.3032 102.914 92.3032 103.376C92.3032 103.839 92.6779 104.213 93.1401 104.213Z" fill="white"/>
<path d="M111.033 104.213C111.495 104.213 111.87 103.839 111.87 103.376C111.87 102.914 111.495 102.54 111.033 102.54C110.571 102.54 110.196 102.914 110.196 103.376C110.196 103.839 110.571 104.213 111.033 104.213Z" fill="white"/>
<path d="M128.843 104.213C129.305 104.213 129.68 103.839 129.68 103.376C129.68 102.914 129.305 102.54 128.843 102.54C128.381 102.54 128.006 102.914 128.006 103.376C128.006 103.839 128.381 104.213 128.843 104.213Z" fill="white"/>
<path d="M142.753 104.213C143.215 104.213 143.59 103.839 143.59 103.376C143.59 102.914 143.215 102.54 142.753 102.54C142.291 102.54 141.916 102.914 141.916 103.376C141.916 103.839 142.291 104.213 142.753 104.213Z" fill="white"/>
<path d="M147.336 105.35H4.94067V107.4H147.336V105.35Z" fill="#304952"/>
<path d="M9.49501 103.376H9.07733V107.4H9.49501V103.376Z" fill="#CCCCCC"/>
<path d="M23.3885 103.376H22.9708V107.4H23.3885V103.376Z" fill="#CCCCCC"/>
<path d="M37.3639 103.376H36.9462V107.4H37.3639V103.376Z" fill="#CCCCCC"/>
<path d="M58.2607 103.376H57.843V107.4H58.2607V103.376Z" fill="#CCCCCC"/>
<path d="M75.9647 103.376H75.547V107.4H75.9647V103.376Z" fill="#CCCCCC"/>
<path d="M93.349 103.376H92.9313V107.4H93.349V103.376Z" fill="#CCCCCC"/>
<path d="M111.242 103.376H110.824V107.4H111.242V103.376Z" fill="#CCCCCC"/>
<path d="M129.052 103.376H128.634V107.4H129.052V103.376Z" fill="#CCCCCC"/>
<path d="M142.962 103.376H142.544V107.4H142.962V103.376Z" fill="#CCCCCC"/>
<path d="M75.9309 77.5085C89.08 77.5085 99.7394 66.849 99.7394 53.6999C99.7394 40.5508 89.08 29.8914 75.9309 29.8914C62.7818 29.8914 52.1224 40.5508 52.1224 53.6999C52.1224 66.849 62.7818 77.5085 75.9309 77.5085Z" fill="#304952"/>
<path fill-rule="evenodd" clip-rule="evenodd" d="M66.6215 38.7382H72.9686V48.2597H82.4901V38.7382H88.838V64.1283H82.4901V54.6068H72.9686V64.1283H66.6215V38.7382Z" fill="#7EDAE6"/>
<path fill-rule="evenodd" clip-rule="evenodd" d="M69.795 51.4332H79.3165L82.4901 48.2597H72.9686L69.795 51.4332Z" fill="white"/>
<path fill-rule="evenodd" clip-rule="evenodd" d="M70.1356 51.2926H79.2579L82.1495 48.401H73.0272L70.1356 51.2926Z" fill="#7EDAE6"/>
<path fill-rule="evenodd" clip-rule="evenodd" d="M69.795 51.4332V41.9117L72.9686 38.7382V48.2597L69.795 51.4332Z" fill="white"/>
<path fill-rule="evenodd" clip-rule="evenodd" d="M69.9364 51.0926L72.8272 48.2018V39.0795L69.9364 41.9704V51.0926Z" fill="#7EDAE6"/>
<path fill-rule="evenodd" clip-rule="evenodd" d="M79.3165 51.4332V41.9117L82.4901 38.7382V48.2597L79.3165 51.4332Z" fill="#7EDAE6"/>
<path fill-rule="evenodd" clip-rule="evenodd" d="M85.6644 67.2914L85.5552 42.0097L88.7288 38.8362V64.2263L85.6644 67.2914Z" fill="#7EDAE6"/>
<path fill-rule="evenodd" clip-rule="evenodd" d="M63.4471 67.3026V41.9117L66.6215 38.7382V64.1283L63.4471 67.3026Z" fill="#7EDAE6"/>
<path fill-rule="evenodd" clip-rule="evenodd" d="M63.4471 41.9117H69.795V51.4332H79.3165V41.9117H85.6644L85.6572 67.3018H79.3165V57.782H69.795V67.3018H63.4471V41.9117Z" fill="#D9F3F7"/>
<path fill-rule="evenodd" clip-rule="evenodd" d="M63.4471 67.3026V41.9117H66.6215V64.1283L63.4471 67.3026Z" fill="#A5E8E6"/>
<path fill-rule="evenodd" clip-rule="evenodd" d="M79.3093 67.3018V57.7811L82.4837 54.6068V64.1283L79.3093 67.3018ZM79.4266 51.5505L79.3093 41.9117H82.4837V48.2597L79.4266 51.5505Z" fill="#A5E8E6"/>
<path fill-rule="evenodd" clip-rule="evenodd" d="M63.4471 67.3026H69.795L72.9686 64.1283H66.6215L63.4471 67.3026Z" fill="white"/>
<path fill-rule="evenodd" clip-rule="evenodd" d="M63.4407 67.3026H69.7878L72.9614 64.1283H66.6142L63.4407 67.3026Z" fill="#7EDAE6"/>
<path fill-rule="evenodd" clip-rule="evenodd" d="M69.795 67.3026V64.1283H72.9686L69.795 67.3026Z" fill="#3ACFE0"/>
<path fill-rule="evenodd" clip-rule="evenodd" d="M79.3165 67.3018H85.6572L88.838 64.1291H82.4901L79.3165 67.3018Z" fill="white"/>
<path fill-rule="evenodd" clip-rule="evenodd" d="M79.3165 67.3018H85.6572L88.838 64.1283H82.4901L79.3165 67.3018Z" fill="#7EDAE6"/>
<path fill-rule="evenodd" clip-rule="evenodd" d="M85.6572 67.3026V64.1283H88.8308L85.6572 67.3026Z" fill="#3ACFE0"/>
<path fill-rule="evenodd" clip-rule="evenodd" d="M85.6572 67.3018L85.6645 41.9117L88.838 38.7374V64.1283L85.6572 67.3018ZM85.7978 66.9645L88.6982 64.0704V39.0755L85.805 41.9696L85.7978 66.9645Z" fill="white"/>
<path fill-rule="evenodd" clip-rule="evenodd" d="M69.6505 67.3018L69.648 57.7803L72.9694 54.6068V64.1283L69.7878 67.3018H69.6505ZM69.7854 67.1002L72.8296 64.0704V54.9449L69.7958 57.7811L69.7854 67.1002Z" fill="white"/>
<path fill-rule="evenodd" clip-rule="evenodd" d="M69.6585 57.7265L79.3093 57.7811L82.4829 54.6076H72.9614L69.6585 57.7265Z" fill="#A5E8E6"/>
<path fill-rule="evenodd" clip-rule="evenodd" d="M63.4407 41.9117H69.7878V51.4332H79.3093V41.9117H85.6644L85.6572 67.3018H79.3093V57.7803H69.7878V67.3018H63.4407V41.9117ZM63.5804 42.0515V67.1621H69.648V57.7803C69.648 57.7032 69.7107 57.6406 69.7878 57.6406H79.3093C79.3864 57.6406 79.4491 57.7032 79.4491 57.7803V67.1621H85.5175V42.0515H79.4491V51.4332C79.4491 51.5103 79.3864 51.573 79.3093 51.573H69.7878C69.7107 51.573 69.648 51.5103 69.648 51.4332V42.0515H63.5804Z" fill="white"/>
</svg>
