<svg width="168" height="96" viewBox="0 0 168 96" fill="none" xmlns="http://www.w3.org/2000/svg">
<path fill-rule="evenodd" clip-rule="evenodd" d="M33.4618 23.5474C33.4618 24.2535 33.3846 25.0133 33.4802 25.7122C33.5236 26.027 33.4971 26.4118 33.5381 26.778C33.5678 27.0415 33.6087 27.5475 33.6425 27.7982C33.771 28.7444 33.9244 42.2764 33.9244 42.396C33.922 42.8595 33.9935 43.0258 33.9943 43.4515L33.9919 45.7021C33.9911 46.1768 34.0489 46.4435 34.061 46.8242C34.0827 47.5576 34.0594 48.3367 34.0585 49.0749C34.0585 49.8749 34.1244 50.4838 34.1244 51.3231C34.1244 52.8902 34.1903 54.2421 34.1903 55.8196L34.2738 60.3651C34.3574 60.9691 34.3252 61.8519 34.3244 62.5675C34.3236 62.9924 34.2521 63.1587 34.2545 63.6222L34.1895 66.9957C34.1895 67.37 34.1895 67.7452 34.1895 68.1195C34.1895 68.5902 34.1429 68.8729 34.1228 69.2432C33.926 72.889 34.3806 73.6931 32.9613 77.2739C32.1501 79.3213 30.7549 81.1599 28.9516 82.3904L28.2833 82.8459C27.6536 83.3069 23.9218 86.1006 23.7403 86.3713C24.8455 86.3713 31.8183 87.1424 33.8031 87.352C36.212 87.6066 38.6121 87.7665 41.0194 88.0717C42.9857 88.3207 44.8395 88.4227 46.809 88.6307C50.6107 89.0324 54.5369 89.397 58.3378 89.7986C60.7378 90.0525 63.1427 90.2131 65.554 90.5183C68.4617 90.887 71.3067 91.0091 74.2176 91.3778C76.6602 91.6878 78.9856 91.7537 81.4346 92.0959C81.9182 92.1633 82.4419 92.1995 82.8724 92.2453C83.3712 92.2983 83.8604 92.3553 84.3182 92.3867C85.7648 92.4838 87.1858 92.6059 88.6525 92.814C89.1473 92.8847 89.6035 92.8871 90.0975 92.9561L92.9819 93.2461C95.353 93.4059 97.8278 93.7722 100.193 93.9706L115.727 95.4991C115.926 95.5281 115.892 95.5241 115.993 95.6293C116.004 95.124 118.089 90.581 118.375 89.8774C118.698 89.0822 119.807 80.6643 119.829 79.0964L119.905 77.7831C120.178 75.3108 119.884 71.3139 119.895 68.5147C119.896 67.9701 119.824 67.7066 119.827 67.1933C119.838 65.3282 119.762 63.6905 119.762 61.8358C119.763 60.1177 119.63 58.202 119.63 56.4791C119.63 54.6348 119.569 52.9866 119.566 51.1199C119.566 50.6733 119.496 50.385 119.497 49.8661L119.432 44.4427C119.435 43.9077 119.362 43.6555 119.365 43.1214C119.369 42.3904 119.439 41.0932 119.347 40.4273C119.244 39.6771 119.298 38.6281 119.299 37.7638C119.299 37.2289 119.231 36.8987 119.231 36.4433C119.227 34.2304 119.218 31.946 119.1 29.762C119.003 27.9612 119.091 26.1395 119.036 24.337C119.027 24.0214 118.983 24.035 118.968 23.7442C118.934 23.1137 118.976 22.4261 119.071 21.7956C119.246 20.6229 119.473 19.6807 120.029 18.72C120.44 18.0084 121.045 17.4156 121.789 17.0413C121.881 16.9947 121.938 16.9698 122.013 16.9345L122.191 16.8477C122.203 16.8421 122.224 16.8284 122.234 16.8236C122.243 16.8188 122.263 16.8092 122.276 16.7995C121.783 16.6847 118.61 16.6734 117.775 16.6043C117.276 16.5634 116.698 16.6292 116.191 16.6011L114.737 16.5344C114.134 16.5344 113.76 16.4646 113.216 16.4678L109.442 16.3393C108.926 16.2967 108.375 16.3642 107.858 16.336C107.558 16.32 107.496 16.2678 107.133 16.267C106.013 16.2654 105.126 16.1979 104.022 16.2043L101.707 16.1392C101.373 16.1296 101.341 16.0726 100.984 16.0686C99.8728 16.0549 98.9587 16.0003 97.8727 16.0059L94.8944 15.8766C94.394 15.8348 93.8172 15.9007 93.3104 15.8734C93.0108 15.8573 92.949 15.8051 92.5859 15.8051C92.3208 15.8051 92.0549 15.8067 91.7899 15.8075L88.7384 15.6846C88.2677 15.6316 87.6492 15.6919 87.1592 15.6774C86.8259 15.6678 86.793 15.6107 86.4364 15.6067L81.0748 15.479C80.7109 15.4782 80.6491 15.4268 80.3503 15.4099L78.7623 15.4107C78.4627 15.3947 78.4008 15.3425 78.0378 15.3417L72.6763 15.214C72.3196 15.2091 72.2867 15.1529 71.9533 15.1433C71.4481 15.128 70.8601 15.1826 70.3677 15.1424C69.8826 15.1023 69.4248 15.0782 68.8432 15.0798L65.8022 14.9473C65.2889 14.9199 64.7283 14.9754 64.2142 14.9481L61.1732 14.8147C60.1033 14.8187 59.2189 14.7649 58.1281 14.7513C57.7715 14.7465 57.7385 14.6902 57.4052 14.6806L48.9408 14.4163C47.8428 14.4147 46.9817 14.3473 45.8957 14.3529L43.58 14.2886C43.2234 14.2846 43.1905 14.2276 42.8571 14.2179C42.3664 14.2035 41.7479 14.2637 41.2772 14.2107C40.8033 14.1577 40.3149 14.1521 39.7462 14.1545C38.4827 14.1593 37.9815 13.8958 36.967 14.4171C34.1132 15.8814 33.4618 20.4245 33.4618 23.5474Z" fill="#A5E8E6"/>
<path fill-rule="evenodd" clip-rule="evenodd" d="M0 19.8446C0 21.3089 0.951021 22.1033 2.12454 22.5474C3.13581 22.9298 4.70131 23.2214 6.08367 23.2173C6.47805 23.2165 6.87886 23.2623 7.14794 23.2704C7.3616 23.2768 7.84435 23.2165 8.20018 23.2173C8.97128 23.2182 9.74399 23.2141 10.5151 23.2173C10.9786 23.2198 11.1753 23.1531 11.5697 23.1483L21.1611 23.1507C22.6928 23.1507 24.0463 23.2166 25.5259 23.2166C27.0857 23.2166 26.7114 22.9378 26.7162 25.3331C26.717 25.7869 26.6688 26.0351 26.6495 26.3909C26.5748 27.7797 26.6495 29.407 26.6495 30.8223L26.5837 52.9762C26.5837 53.7441 26.5178 54.2951 26.5178 55.0927L26.452 70.6336C26.452 71.3605 26.4455 72.0907 26.4528 72.8168C26.4616 73.6642 26.3339 73.4987 25.5074 74.1196L19.1586 78.8812C18.7209 79.2097 18.3361 79.5711 17.855 79.8258V82.2724L22.0928 83.1929C23.7451 83.5383 23.035 83.7736 25.3788 81.8603L28.2287 79.5519C28.4343 79.388 29.5476 78.5864 29.6111 78.355C29.697 78.0402 29.6416 29.2978 29.6255 22.5555C29.6231 21.3346 29.7765 20.0566 29.8842 18.912C29.9565 18.1466 30.1083 17.365 30.2729 16.7216C30.5019 15.8276 30.6898 15.5955 31.2794 15.083H11.5721L12.4886 13.1561C12.6348 12.7954 12.7963 12.5023 12.9609 12.1737L14.3497 9.26363C14.5481 8.86924 15.1939 7.63148 15.2758 7.27967C16.5939 7.27967 17.6895 7.34632 18.9787 7.34551L22.6254 7.46841C23.125 7.52464 23.9378 7.48045 24.468 7.47724L34.6529 7.74072C35.0578 7.73911 35.1646 7.80014 35.5084 7.81058C36.1349 7.82905 36.8096 7.77445 37.4289 7.80819L41.0659 7.94071C42.3889 7.9375 43.4957 8.01059 44.8371 8.00497L46.6211 8.07244C46.9247 8.07244 47.2484 8.06121 47.5496 8.07005C47.9014 8.08049 48.0476 8.14152 48.4725 8.13911C49.7914 8.13188 50.8726 8.20737 52.177 8.20416L54.8895 8.26924C55.3144 8.26683 55.4606 8.32786 55.8124 8.33831C56.4454 8.35758 57.1016 8.31501 57.7345 8.33429C58.0791 8.34473 58.1852 8.40579 58.5908 8.40418C59.594 8.40017 62.4447 8.4363 63.2311 8.52546C63.7507 8.5841 64.5885 8.5359 65.1411 8.53349C65.546 8.53188 65.6528 8.59294 65.9966 8.60338L67.9171 8.60096C68.2343 8.61783 68.3725 8.67084 68.7757 8.66843L72.5461 8.73351C73.2023 8.7311 73.6883 8.80019 74.3975 8.80019L76.1807 8.86845C76.8072 8.88773 77.482 8.8323 78.1013 8.86603C80.5383 8.99776 82.9953 9.07328 85.4427 9.06284L87.2926 9.13031C89.0886 9.13031 90.9915 9.26926 92.8478 9.26283L95.5603 9.32788C95.9852 9.32547 96.1313 9.38653 96.4832 9.39698C97.0936 9.41545 97.7281 9.3745 98.3386 9.39217C98.6832 9.40261 98.7892 9.46363 99.1949 9.46203L102.04 9.52628C102.701 9.52548 103.337 9.51988 103.901 9.58333C104.405 9.63956 105.21 9.59377 105.744 9.59136L115.862 9.8564C116.287 9.85399 116.433 9.91506 116.785 9.9255C117.41 9.94397 118.086 9.88934 118.705 9.92308C119.022 9.93995 119.161 9.99296 119.564 9.99055C121.783 9.9777 123.894 10.1167 126.114 10.1199C126.512 10.1199 126.594 10.1866 126.969 10.1906L128.825 10.1857C129.177 10.1962 129.323 10.2572 129.748 10.2548C131.074 10.2476 132.196 10.3199 133.518 10.3199C133.493 10.6331 133.291 11.0709 133.197 11.3215C133.066 11.6717 132.955 11.989 132.832 12.344L130.675 18.4534C130.407 18.4309 130.314 18.3843 129.949 18.3859C129.663 18.3875 129.371 18.3939 129.085 18.3899L127.432 18.3232C126.402 18.3273 125.269 18.1891 124.193 18.1891C123.632 19.0269 123.075 19.7546 122.69 20.7201C122.36 21.549 121.941 22.9587 121.944 24.0736C121.945 24.4527 121.857 24.6889 121.893 24.9796C122.031 26.08 121.918 26.305 122.236 27.75C122.362 28.3251 122.513 28.84 122.675 29.3613C122.855 29.938 123.298 29.6761 124.276 29.8103C124.887 29.8938 125.53 29.8416 126.138 29.9323C126.957 30.0544 131.546 30.3219 132.792 30.4191L134.706 30.5548C135.096 30.5741 135.38 30.6151 135.697 30.6223L137.615 30.754C138.253 30.7597 138.914 30.885 139.534 30.885V72.4152C138.851 72.4152 138.245 72.481 137.484 72.481C136.779 72.481 136.073 72.481 135.367 72.481C134.592 72.481 134.069 72.5477 133.318 72.5469C129.82 72.5453 126.317 72.6794 122.803 72.6794V77.9703H139.534C139.534 80.5744 139.633 79.6025 138.191 82.1824C137.703 83.0539 134.045 89.1778 134.045 89.5432V92.7835H139.6C139.67 92.5208 142.291 88.9673 142.444 88.7496L145.343 84.7054C145.838 84.0315 146.299 83.4049 146.781 82.7053L150.369 77.6956C150.569 77.4233 151.04 76.9277 151.04 76.5815V72.4152C149.654 72.4152 148.17 72.1951 146.799 72.0939C146.557 72.0762 146.345 72.1445 146.345 71.8858V30.9508L151.72 31.3292C152.813 31.477 154.248 31.4175 155.321 31.5637C155.863 31.6368 156.508 31.6207 157.116 31.6874C157.686 31.7493 158.272 31.7814 158.912 31.8095C159.522 31.8368 159.998 32.0087 160.631 32.0087C161.893 32.0087 163.146 31.9179 164.224 31.4368C166.7 30.3332 167.706 28.2359 167.706 25.1973V8.1351C167.706 6.48928 166.69 5.12862 165.497 4.26032C163.527 2.82817 160.313 2.84343 157.786 2.84423C153.859 2.84423 149.741 2.57835 145.817 2.57995C145.31 2.57995 144.803 2.57915 144.296 2.57995C143.712 2.58076 143.376 2.51007 142.842 2.51328L140.591 2.5165C140.228 2.5165 140.166 2.4643 139.866 2.44743C138.857 2.39281 137.769 2.55667 136.796 2.40968C135.951 2.28197 134.692 2.43135 133.781 2.38235L132.327 2.31571C131.82 2.31571 131.312 2.3141 130.805 2.31571C130.246 2.31892 129.935 2.24823 129.35 2.24903C125.876 2.25707 122.333 2.05063 118.835 2.05063L114.338 1.98476C113.736 1.98556 113.408 1.9157 112.818 1.91811C108.764 1.93337 104.844 1.70524 100.78 1.72131C100.275 1.72291 99.9033 1.65303 99.3266 1.65384C98.8197 1.65384 98.3129 1.65303 97.8061 1.65384C97.2221 1.65384 96.8855 1.58315 96.3522 1.58637C92.871 1.60645 89.3167 1.38876 85.8363 1.38876C85.3295 1.38876 84.8219 1.38635 84.315 1.38876C83.7568 1.39117 83.4451 1.32048 82.8604 1.32209H80.6114C80.3118 1.30602 80.2499 1.25382 79.8868 1.25382C78.8467 1.25221 77.7816 1.27149 76.8394 1.19358C75.8988 1.11567 74.7293 1.28356 73.8104 1.18074C72.7574 1.06267 71.281 1.15423 70.1605 1.06186C69.9228 1.04258 69.6159 1.05864 69.3709 1.05864C68.8641 1.05864 68.3572 1.05784 67.8496 1.05864C67.2649 1.06025 66.954 0.988752 66.395 0.991965L61.8318 0.926118C59.3426 0.926118 56.839 0.780738 54.3586 0.794393C53.8148 0.797606 53.4413 0.726915 52.8381 0.727719C52.3312 0.727719 51.8244 0.726915 51.3168 0.727719C50.7328 0.728522 50.3963 0.657028 49.8629 0.661044L47.6114 0.664262C47.2484 0.664262 47.1858 0.612034 46.887 0.595167C45.9713 0.545366 44.7206 0.694789 43.8628 0.577517C42.9776 0.45623 41.7992 0.561429 40.8008 0.531709L39.3478 0.463442C38.841 0.463442 38.3333 0.461032 37.8265 0.463442C37.2675 0.466655 36.9566 0.395161 36.3719 0.396767L31.8754 0.33092C28.3821 0.33092 24.8351 0.124489 21.3603 0.132521C20.7756 0.134128 20.4647 0.0626341 19.9056 0.065847C19.3988 0.0682567 18.8912 0.065847 18.3843 0.065847C17.716 0.065847 17.006 0.0257034 16.2983 0H14.4662C14.2653 0.0120484 14.0678 0.0297083 13.8758 0.0538052C11.0966 0.406423 8.44354 1.3462 6.83789 3.72938C6.61298 4.06272 6.49812 4.36875 6.33988 4.75189C4.71495 8.68933 2.95269 12.5585 1.27555 16.4847C1.11892 16.851 0.988768 17.1875 0.81768 17.5473C0.45462 18.3104 0 18.9112 0 19.8446Z" fill="#304952"/>
<path d="M75.7687 77.3952C88.9178 77.3952 99.5772 66.7357 99.5772 53.5866C99.5772 40.4375 88.9178 29.7781 75.7687 29.7781C62.6196 29.7781 51.9602 40.4375 51.9602 53.5866C51.9602 66.7357 62.6196 77.3952 75.7687 77.3952Z" fill="#304952"/>
<path fill-rule="evenodd" clip-rule="evenodd" d="M66.4593 38.6249H72.8064V48.1464H82.3287V38.6249H88.6758V64.0158H82.3287V54.4943H72.8064V64.0158H66.4593V38.6249Z" fill="#7EDAE6"/>
<path fill-rule="evenodd" clip-rule="evenodd" d="M69.6328 51.3199H79.1543L82.3287 48.1464H72.8064L69.6328 51.3199Z" fill="white"/>
<path fill-rule="evenodd" clip-rule="evenodd" d="M69.9734 51.1794H79.0956L81.9872 48.2878H72.865L69.9734 51.1794Z" fill="#7EDAE6"/>
<path fill-rule="evenodd" clip-rule="evenodd" d="M69.6328 51.3199V41.7993L72.8064 38.6249V48.1464L69.6328 51.3199Z" fill="white"/>
<path fill-rule="evenodd" clip-rule="evenodd" d="M69.7741 50.9794L72.665 48.0885V38.9663L69.7741 41.8571V50.9794Z" fill="#7EDAE6"/>
<path fill-rule="evenodd" clip-rule="evenodd" d="M79.1543 51.3199V41.7993L82.3287 38.6249V48.1464L79.1543 51.3199Z" fill="#7EDAE6"/>
<path fill-rule="evenodd" clip-rule="evenodd" d="M85.5022 67.1781L85.393 41.8965L88.5665 38.7229V64.113L85.5022 67.1781Z" fill="#7EDAE6"/>
<path fill-rule="evenodd" clip-rule="evenodd" d="M63.2849 67.1893V41.7993L66.4593 38.6249V64.0158L63.2849 67.1893Z" fill="#7EDAE6"/>
<path fill-rule="evenodd" clip-rule="evenodd" d="M63.2849 41.7984H69.6328V51.3207H79.1543V41.7984H85.5022L85.495 67.1893H79.1543V57.6687H69.6328V67.1893H63.2849V41.7984Z" fill="#D9F3F7"/>
<path fill-rule="evenodd" clip-rule="evenodd" d="M63.2849 67.1893V41.7993H66.4593V64.0158L63.2849 67.1893Z" fill="#A5E8E6"/>
<path fill-rule="evenodd" clip-rule="evenodd" d="M79.1479 67.1893V57.6678L82.3214 54.4943V64.0158L79.1479 67.1893ZM79.2652 51.438L79.1479 41.7984H82.3214V48.1464L79.2652 51.438Z" fill="#A5E8E6"/>
<path fill-rule="evenodd" clip-rule="evenodd" d="M63.2849 67.1893H69.6328L72.8064 64.0158H66.4593L63.2849 67.1893Z" fill="white"/>
<path fill-rule="evenodd" clip-rule="evenodd" d="M63.2784 67.1893H69.6255L72.7999 64.0158H66.452L63.2784 67.1893Z" fill="#7EDAE6"/>
<path fill-rule="evenodd" clip-rule="evenodd" d="M69.6328 67.1893V64.0158H72.8064L69.6328 67.1893Z" fill="#3ACFE0"/>
<path fill-rule="evenodd" clip-rule="evenodd" d="M79.1543 67.1893H85.4949L88.6758 64.0158H82.3287L79.1543 67.1893Z" fill="white"/>
<path fill-rule="evenodd" clip-rule="evenodd" d="M79.1543 67.1893H85.4949L88.6758 64.015H82.3287L79.1543 67.1893Z" fill="#7EDAE6"/>
<path fill-rule="evenodd" clip-rule="evenodd" d="M85.495 67.1893V64.0158H88.6686L85.495 67.1893Z" fill="#3ACFE0"/>
<path fill-rule="evenodd" clip-rule="evenodd" d="M85.495 67.1893L85.5022 41.7993L88.6758 38.6249V64.015L85.495 67.1893ZM85.6347 66.852L88.5352 63.9579V38.9631L85.642 41.8571L85.6347 66.852Z" fill="white"/>
<path fill-rule="evenodd" clip-rule="evenodd" d="M69.4874 67.1894L69.485 57.6679L72.8064 54.4943V64.0158L69.6247 67.1894H69.4874ZM69.6223 66.9877L72.6658 63.9579V54.8325L69.632 57.6687L69.6223 66.9877Z" fill="white"/>
<path fill-rule="evenodd" clip-rule="evenodd" d="M69.497 57.6132L79.147 57.6679L82.3214 54.4943H72.7999L69.497 57.6132Z" fill="#A5E8E6"/>
<path fill-rule="evenodd" clip-rule="evenodd" d="M63.2784 41.7993H69.6255V51.3207H79.147V41.7993H85.5022L85.4949 67.1893H79.147V57.6678H69.6255V67.1893H63.2784V41.7993ZM63.4182 41.939V67.0488H69.4858V57.6678C69.4858 57.5907 69.5492 57.5273 69.6263 57.5273H79.1478C79.2249 57.5273 79.2876 57.5907 79.2876 57.6678V67.0488H85.356V41.939H79.2876V51.3207C79.2876 51.3978 79.2249 51.4605 79.1478 51.4605H69.6263C69.5492 51.4605 69.4858 51.3978 69.4858 51.3207V41.939H63.4182Z" fill="white"/>
</svg>
