<svg width="600" height="400" fill="none" xmlns="http://www.w3.org/2000/svg"><mask id="a" style="mask-type:luminance" maskUnits="userSpaceOnUse" x="199" y="352" width="203" height="48"><path d="M376.973 352.893c20.921 1.736 25.18 9.24 24.97 14.742L232.096 400c-3.144-15.885-25.757-18.865-33.096-20.51l177.973-26.597z" fill="#fff"/></mask><g mask="url(#a)"><path d="M402.144 352.893H199V400h203.144v-47.107z" fill="url(#b)"/></g><mask id="c" style="mask-type:luminance" maskUnits="userSpaceOnUse" x="199" y="379" width="34" height="21"><path d="M199 379.49c20.748 1.883 32.136 9.963 33.096 20.51l-33.014-9.259L199 379.49z" fill="#fff"/></mask><g mask="url(#c)"><path d="M232.087 379.49H199v20.519h33.087V379.49z" fill="url(#d)"/></g><mask id="e" style="mask-type:luminance" maskUnits="userSpaceOnUse" x="221" y="6" width="160" height="375"><path d="m221.255 6.782 158.77 22.1-3.19 326.241-155.717 25.546.137-373.887z" fill="#fff"/></mask><g mask="url(#e)"><path d="M380.025 6.782H221.118v373.887h158.907V6.782z" fill="url(#f)"/></g><mask id="g" style="mask-type:luminance" maskUnits="userSpaceOnUse" x="215" y="0" width="172" height="30"><path d="M215.625 0a10.058 10.058 0 0 0 0 6.663l169.902 22.978a7.872 7.872 0 0 0 .083-5.301L215.625 0z" fill="#fff"/></mask><g mask="url(#g)"><path d="M386.186 0H214.849v29.64h171.337V0z" fill="url(#h)"/></g><defs><linearGradient id="b" x1="298.662" y1="365.46" x2="302.044" y2="384.882" gradientUnits="userSpaceOnUse"><stop stop-color="#4D4D4D"/><stop offset=".49" stop-color="#EBE6E6"/><stop offset="1" stop-color="#4D4D4D"/></linearGradient><linearGradient id="d" x1="198.159" y1="381.19" x2="232.937" y2="398.3" gradientUnits="userSpaceOnUse"><stop stop-color="#262525"/><stop offset=".14" stop-color="#4D4C4C"/><stop offset=".36" stop-color="#828181"/><stop offset=".56" stop-color="#ACACAC"/><stop offset=".74" stop-color="#CACACA"/><stop offset=".89" stop-color="#DCDCDC"/><stop offset="1" stop-color="#E3E3E3"/></linearGradient><linearGradient id="f" x1="138.722" y1="343.835" x2="431.821" y2="71.986" gradientUnits="userSpaceOnUse"><stop stop-color="#7EDAE6"/><stop offset="1" stop-color="#D9F3F7"/></linearGradient><linearGradient id="h" x1="300.965" y1="11.544" x2="300.106" y2="17.85" gradientUnits="userSpaceOnUse"><stop stop-color="#262525"/><stop offset=".49" stop-color="#EBE6E6"/><stop offset="1" stop-color="#262525"/></linearGradient></defs></svg>