<svg width="201" height="40" viewBox="0 0 201 40" fill="none" xmlns="http://www.w3.org/2000/svg">
<path fill-rule="evenodd" clip-rule="evenodd" d="M4.45506 0H13.344V13.3337H26.6772V0H35.5661V35.5558H26.6772V22.2226H13.344V35.5558H4.45506V0Z" fill="#7EDAE6"/>
<path fill-rule="evenodd" clip-rule="evenodd" d="M8.89928 17.7779H22.2329L26.6772 13.3337H13.344L8.89928 17.7779Z" fill="white"/>
<path fill-rule="evenodd" clip-rule="evenodd" d="M9.37596 17.5806H22.1508L26.1995 13.5314H13.4252L9.37596 17.5806Z" fill="#7EDAE6"/>
<path fill-rule="evenodd" clip-rule="evenodd" d="M8.89928 17.7779V4.44472L13.344 0V13.3337L8.89928 17.7779Z" fill="white"/>
<path fill-rule="evenodd" clip-rule="evenodd" d="M9.09654 17.3007L13.1457 13.252V0.477676L9.09654 4.52638V17.3007Z" fill="#7EDAE6"/>
<path fill-rule="evenodd" clip-rule="evenodd" d="M22.2329 17.7779V4.44472L26.6772 0V13.3337L22.2329 17.7779Z" fill="#7EDAE6"/>
<path fill-rule="evenodd" clip-rule="evenodd" d="M31.1219 39.9842L30.9694 4.58147L35.4136 0.136757V35.6925L31.1219 39.9842Z" fill="#7EDAE6"/>
<path fill-rule="evenodd" clip-rule="evenodd" d="M0.0103455 40V4.44472L4.45506 0V35.5558L0.0103455 40Z" fill="#7EDAE6"/>
<path fill-rule="evenodd" clip-rule="evenodd" d="M0.0103455 4.44472H8.89929V17.7779H22.2325V4.44472H31.1219L31.1121 40H22.2325V26.6673H8.89929V40H0.0103455V4.44472Z" fill="#D9F3F7"/>
<path fill-rule="evenodd" clip-rule="evenodd" d="M0.0103455 40V4.44472H4.45506V35.5558L0.0103455 40Z" fill="#A5E8E6"/>
<path fill-rule="evenodd" clip-rule="evenodd" d="M22.2226 40V26.6668L26.6668 22.2226V35.5558L22.2226 40ZM22.3874 17.9427L22.2226 4.44472H26.6668V13.3337L22.3874 17.9427Z" fill="#A5E8E6"/>
<path fill-rule="evenodd" clip-rule="evenodd" d="M0.0103455 40H8.89929L13.344 35.5558H4.45506L0.0103455 40Z" fill="white"/>
<path fill-rule="evenodd" clip-rule="evenodd" d="M0.000488281 40H8.88943L13.3337 35.5558H4.44471L0.000488281 40Z" fill="#7EDAE6"/>
<path fill-rule="evenodd" clip-rule="evenodd" d="M8.89928 40V35.5558H13.344L8.89928 40Z" fill="#3ACFE0"/>
<path fill-rule="evenodd" clip-rule="evenodd" d="M22.2325 40H31.1121L35.5661 35.5563H26.6772L22.2325 40Z" fill="white"/>
<path fill-rule="evenodd" clip-rule="evenodd" d="M22.2325 40H31.1121L35.5661 35.5553H26.6772L22.2325 40Z" fill="#7EDAE6"/>
<path fill-rule="evenodd" clip-rule="evenodd" d="M31.1116 40V35.5558H35.5563L31.1116 40Z" fill="#3ACFE0"/>
<path fill-rule="evenodd" clip-rule="evenodd" d="M31.112 40L31.1219 4.44472L35.5656 0V35.5563L31.112 40ZM31.3083 39.5277L35.3703 35.4751V0.472758L31.3182 4.5254L31.3083 39.5277Z" fill="white"/>
<path fill-rule="evenodd" clip-rule="evenodd" d="M8.6961 40L8.69315 26.6668L13.344 22.2231V35.5563L8.88944 40H8.6961ZM8.88501 39.7176L13.1477 35.4751V22.6959L8.89927 26.6673L8.88501 39.7176Z" fill="white"/>
<path fill-rule="evenodd" clip-rule="evenodd" d="M8.7084 26.5901L22.2226 26.6668L26.6673 22.2226H13.3337L8.7084 26.5901Z" fill="#A5E8E6"/>
<path fill-rule="evenodd" clip-rule="evenodd" d="M0 4.44472H8.88894V17.7779H22.2221V4.44472H31.1214L31.1115 40H22.2221V26.6668H8.88894V40H0V4.44472ZM0.196285 4.641V39.8042H8.69315V26.6668C8.69315 26.5586 8.78121 26.4705 8.88944 26.4705H22.2226C22.3303 26.4705 22.4189 26.5586 22.4189 26.6668V39.8042H30.9163V4.641H22.4189V17.7784C22.4189 17.8866 22.3308 17.9747 22.2226 17.9747H8.88944C8.78121 17.9747 8.69315 17.8866 8.69315 17.7784V4.641H0.196285Z" fill="white"/>
<path fill-rule="evenodd" clip-rule="evenodd" d="M155.286 4.14974C157.298 1.12987 160.343 0.00146894 164.344 0.00146894H169.89C172.653 0.00146894 176.055 0.568243 176.055 4.04241C176.055 5.06055 175.747 6.125 175.381 7.06595L173.547 11.7935C171.664 16.6519 168.199 18.3838 163.257 18.3838H157.71C154.954 18.3838 151.521 17.8788 151.521 14.3899C151.521 13.352 151.847 12.2552 152.219 11.2951L154.052 6.56755C154.222 6.13015 154.405 5.71774 154.6 5.3296C154.517 5.36342 154.428 5.3818 154.332 5.3818H147.168C147.234 5.44061 147.289 5.51191 147.329 5.59866C147.416 5.77803 147.425 5.96402 147.353 6.15L142.818 17.7994C142.712 18.0692 142.465 18.2383 142.176 18.2383H137.713C137.477 18.2383 137.277 18.1317 137.144 17.9384C137.011 17.7443 136.986 17.5186 137.07 17.2995L141.72 5.38253H135.782C135.547 5.38253 135.346 5.27594 135.213 5.0826C135.08 4.88853 135.055 4.66138 135.141 4.44305L136.661 0.560154C136.766 0.2911 137.012 0.12276 137.302 0.12276H155.851C156.086 0.12276 156.287 0.229353 156.42 0.422689C156.553 0.61676 156.578 0.843911 156.492 1.06224L155.286 4.14974ZM53.2416 6.41832H62.6864L64.9756 0.56089C65.08 0.291101 65.327 0.122024 65.6166 0.122024H70.0795C70.3148 0.122024 70.5155 0.228617 70.6485 0.421953C70.7808 0.616024 70.8066 0.841704 70.7205 1.06077L64.1839 17.7994C64.0795 18.0692 63.8325 18.2383 63.5429 18.2383H59.0799C58.8447 18.2383 58.644 18.1317 58.511 17.9384C58.3786 17.745 58.3529 17.5186 58.4375 17.2995L60.6296 11.6788H52.2301C51.8508 11.6788 51.5413 11.3693 51.5413 10.99V10.768L48.7949 17.8002C48.6898 18.0699 48.4435 18.239 48.1539 18.239H43.691C43.4557 18.239 43.255 18.1324 43.122 17.9391C42.9897 17.745 42.9639 17.5193 43.05 17.3003L49.5866 0.561626C49.691 0.291837 49.938 0.12276 50.2276 0.12276H54.6906C54.9258 0.12276 55.1265 0.229353 55.2595 0.422689C55.3919 0.61676 55.4176 0.84244 55.3316 1.06151L53.2416 6.41832ZM88.8118 11.7935C86.9284 16.6519 83.4646 18.3838 78.5209 18.3838H72.973C70.217 18.3838 66.7855 17.8788 66.7855 14.3899C66.7855 13.352 67.1111 12.2552 67.4831 11.2951L69.315 6.56755C71.1962 1.71282 74.6755 0.000732825 79.6059 0.000732825H85.1539C87.9164 0.000732825 91.3186 0.568243 91.3186 4.04168C91.3186 5.05982 91.0106 6.12427 90.6452 7.06522L88.8118 11.7935ZM110.351 12.2294C108.437 17.1253 105.56 18.3838 100.472 18.3838H95.5749C93.2865 18.3838 88.8802 18.3978 88.8802 15.1383C88.8802 14.0261 89.347 12.755 89.7476 11.7273L94.1135 0.559418C94.2186 0.290364 94.4649 0.122024 94.7545 0.122024H99.216C99.4512 0.122024 99.6519 0.228617 99.7849 0.421953C99.9173 0.615289 99.943 0.841704 99.8584 1.06077L95.5382 12.1375C95.4485 12.3551 95.3448 12.6345 95.3551 12.9528C95.533 13.1402 96.8128 13.1226 97.0694 13.1226H101.966C103.616 13.1226 104.096 13.0528 104.726 11.4384L108.972 0.560154C109.076 0.290365 109.323 0.121288 109.613 0.121288H114.075C114.31 0.121288 114.511 0.227881 114.644 0.421217C114.777 0.615288 114.802 0.842439 114.716 1.06077L110.351 12.2294ZM126.26 11.6935C125.959 11.6163 125.191 11.6097 124.99 11.6061L118.742 11.4848C116.518 11.4421 112.833 11.6127 112.833 8.47959C112.833 7.51879 113.188 6.44258 113.53 5.55529C115.447 0.588827 118.388 0.000732825 123.242 0.000732825H128.549C130.807 0.000732825 134.736 -0.129383 134.736 3.07794C134.736 3.55356 134.638 4.03873 134.522 4.49892C134.444 4.80987 134.175 5.02012 133.855 5.02012H121.819C120.753 5.02012 119.702 4.92235 119.281 6.01841C119.235 6.14412 119.175 6.3279 119.16 6.49551C119.356 6.5477 119.775 6.55872 119.904 6.56167L127.04 6.68296C129.082 6.71824 132.662 6.71677 132.662 9.56536C132.662 10.5159 132.305 11.5671 131.965 12.4441C130.004 17.4804 127.352 18.3831 121.916 18.3831H116.609C114.179 18.3831 110.252 18.6183 110.252 15.1861C110.252 14.7487 110.319 14.3039 110.413 13.8776C110.485 13.56 110.759 13.3387 111.086 13.3387H123.339C124.519 13.3387 125.605 13.4747 126.099 12.2294C126.151 12.0971 126.235 11.8729 126.26 11.6935ZM182.62 6.82484L178.348 17.7994C178.242 18.0692 177.995 18.2383 177.705 18.2383H173.244C173.009 18.2383 172.808 18.1317 172.675 17.9384C172.542 17.7443 172.517 17.5186 172.603 17.2995L179.14 0.56089C179.245 0.291101 179.491 0.122024 179.781 0.122024H184.388C186.559 0.122024 187.216 1.4423 187.943 3.20144L190.931 10.424L194.793 0.559418C194.898 0.290364 195.145 0.122024 195.434 0.122024H199.897C200.132 0.122024 200.333 0.228617 200.466 0.421953C200.598 0.616024 200.624 0.841704 200.538 1.06077L194.001 17.7994C193.897 18.0692 193.65 18.2383 193.36 18.2383H189.887C187.716 18.2383 187.08 16.9055 186.316 15.1765L182.62 6.82484ZM130.069 35.3099H127.397C127.017 35.3099 126.708 35.0005 126.708 34.6211V32.3996C126.708 32.0203 127.017 31.7108 127.397 31.7108H135.299C135.534 31.7108 135.735 31.8167 135.868 32.0115C136 32.2048 136.026 32.4312 135.942 32.6488L135.125 34.7498C133.529 38.8562 131.993 40 127.622 40H123.264C121.209 40 118.79 39.6648 118.79 37.0706C118.79 36.2105 119.066 35.3055 119.374 34.5109L120.59 31.3851C122.065 27.5927 124.439 26.3783 128.3 26.3783H132.4C134.294 26.3783 137.031 26.3665 137.031 28.9607C137.031 29.3224 136.977 29.6804 136.888 30.0311C136.81 30.3413 136.54 30.5523 136.22 30.5523H127.207C125.657 30.5523 125.349 31.4234 124.827 32.7694L124.132 34.5587C124 34.9005 123.814 35.4151 123.814 35.7863C123.814 35.815 123.809 35.8723 123.82 35.8988C123.939 35.9885 124.489 35.9826 124.636 35.9826H128.648C129.373 35.9826 129.771 35.7459 130.069 35.3099ZM139.886 35.5672L138.373 39.4575C138.267 39.7273 138.02 39.8964 137.73 39.8964H134.517C134.282 39.8964 134.081 39.7898 133.948 39.5964C133.815 39.4024 133.79 39.1767 133.876 38.9576L138.583 26.9046C138.687 26.6348 138.934 26.4657 139.224 26.4657H148.862C150.52 26.4657 152.4 26.8009 152.4 28.8563C152.4 29.5415 152.182 30.2641 151.934 30.897C151.448 32.1379 150.826 33.2009 149.822 33.8191C150.035 34.1029 150.159 34.4675 150.159 34.9174C150.159 35.3452 150.043 35.7745 149.885 36.1619L148.601 39.4575C148.495 39.7273 148.248 39.8964 147.959 39.8964H144.746C144.512 39.8964 144.31 39.7905 144.178 39.5972C144.046 39.4031 144.018 39.1774 144.104 38.9591L145.148 36.2612C145.206 36.1178 145.309 35.9076 145.304 35.7098C145.25 35.676 145.102 35.6937 145.041 35.6937H140.282C140.134 35.6937 139.999 35.6466 139.886 35.5672ZM141.866 30.4824L141.287 31.9703H145.91C146.78 31.9703 146.874 31.8527 147.194 31.0411C147.234 30.9367 147.332 30.6853 147.393 30.4824H141.866ZM166.403 35.1313C165.016 38.7047 162.452 40 158.813 40H154.82C152.719 40 150.171 39.5714 150.171 36.9324C150.171 36.159 150.408 35.3489 150.686 34.6336L152.006 31.23C153.392 27.6596 155.965 26.379 159.594 26.379H163.59C165.696 26.379 168.221 26.8546 168.221 29.4827C168.221 30.2398 167.995 31.0279 167.722 31.7277L166.403 35.1313ZM171.127 35.7701C171.382 35.8334 171.995 35.8267 172.17 35.8267H175.695C176.803 35.8267 177.081 35.815 177.502 34.7366L180.56 26.9039C180.664 26.6341 180.911 26.465 181.201 26.465H184.413C184.648 26.465 184.848 26.5716 184.981 26.7649C185.115 26.959 185.14 27.1861 185.054 27.4045L181.91 35.4452C180.502 39.0458 178.362 39.9985 174.619 39.9985H171.092C169.311 39.9985 166.079 39.9669 166.079 37.4697C166.079 36.639 166.417 35.7091 166.717 34.9431L169.86 26.9024C169.964 26.6333 170.211 26.465 170.501 26.465H173.714C173.95 26.465 174.15 26.5716 174.283 26.7649C174.416 26.9583 174.441 27.1847 174.357 27.4037L171.247 35.3805C171.202 35.4878 171.147 35.6356 171.127 35.7701ZM186.445 36.5648L185.315 39.4582C185.21 39.728 184.963 39.8971 184.673 39.8971H181.462C181.227 39.8971 181.026 39.7905 180.893 39.5972C180.76 39.4031 180.735 39.1774 180.821 38.9583L185.526 26.9053C185.631 26.6355 185.878 26.4665 186.167 26.4665H194.851C196.692 26.4665 198.508 26.9634 198.508 29.1349C198.508 30.034 198.196 31.0058 197.871 31.835C196.525 35.2754 195.186 36.8044 191.342 36.8044H186.966C186.758 36.8044 186.571 36.7111 186.445 36.5648ZM83.1389 10.8114L84.6084 7.05419C84.7444 6.68884 84.9245 6.15588 84.9245 5.75597C84.9245 5.15391 84.0468 5.26271 83.6351 5.26271H78.0872C76.2663 5.26271 75.6988 5.80008 75.0136 7.55113L73.5434 11.3113C73.3942 11.7046 73.2038 12.25 73.2038 12.6793C73.2038 13.2307 74.0521 13.1248 74.4697 13.1248H80.0176C81.8429 13.1248 82.4538 12.5632 83.1389 10.8114ZM167.876 10.8129L169.344 7.05419C169.48 6.68884 169.66 6.15588 169.66 5.75597C169.66 5.15391 168.783 5.26271 168.371 5.26271H162.824C161.003 5.26271 160.436 5.80008 159.75 7.55113L158.28 11.3113C158.131 11.706 157.942 12.2493 157.942 12.6793C157.942 13.2307 158.788 13.1248 159.206 13.1248H164.754C166.579 13.1248 167.19 12.5646 167.876 10.8129ZM161.959 34.2852L163.016 31.5829C163.104 31.3462 163.238 30.986 163.228 30.6309C163.118 30.5471 162.631 30.553 162.495 30.553H158.501C157.276 30.553 156.931 30.8963 156.468 32.0784L155.409 34.7843C155.312 35.0387 155.164 35.4011 155.172 35.7628C155.286 35.8407 155.758 35.8282 155.895 35.8282H159.89C161.122 35.8282 161.494 35.4724 161.959 34.2852ZM187.979 32.6319H191.794C192.897 32.6319 192.876 32.3739 193.29 31.33C193.349 31.1808 193.471 30.8801 193.518 30.6618C193.379 30.6434 193.194 30.6405 193.114 30.6405H188.756L187.979 32.6319Z" fill="white"/>
<path d="M48.1531 17.551L54.6898 0.810839H50.2276L43.6909 17.551H48.1531ZM63.5421 17.551L70.0788 0.810839H65.6166L63.1562 7.10639H52.2294V10.99H61.6367L59.0799 17.551H63.5421ZM83.7799 11.0628C82.8147 13.5475 81.6334 13.8121 80.0168 13.8121H74.4689C73.3111 13.8121 72.515 13.6681 72.515 12.6786C72.515 12.2684 72.6355 11.7619 72.9009 11.0628L74.3726 7.29973C75.3378 4.81576 76.4714 4.57465 78.0872 4.57465H83.6351C84.7209 4.57465 85.6126 4.69521 85.6126 5.75672C85.6126 6.14265 85.492 6.64915 85.2509 7.29973L83.7799 11.0628ZM88.17 11.545L90.0027 6.81749C90.4364 5.70746 90.6297 4.79151 90.6297 4.04316C90.6297 1.29308 88.0487 0.690277 85.1546 0.690277H79.6066C75.7715 0.690277 71.9599 1.65549 69.9582 6.81749L68.1256 11.545C67.6911 12.6786 67.4742 13.6195 67.4742 14.3907C67.4742 17.0922 69.9589 17.6958 72.9737 17.6958H78.5216C82.381 17.6958 86.1676 16.707 88.17 11.545ZM109.71 11.9788L114.076 0.810839H109.613L105.368 11.6891C104.596 13.6431 103.824 13.8114 101.967 13.8114H97.0709C95.6477 13.8114 94.6589 13.7879 94.6589 12.8705C94.6589 12.6051 94.731 12.2919 94.9001 11.8817L99.2174 0.810103H94.7552L90.3894 11.978C89.8829 13.2564 89.569 14.2937 89.569 15.1376C89.569 16.8982 91.0642 17.6943 95.5749 17.6943H100.472C105.489 17.6943 107.973 16.4409 109.71 11.9788ZM131.322 12.1956C131.756 11.0856 131.973 10.2417 131.973 9.5661C131.973 7.90179 130.525 7.41955 127.028 7.37104L119.888 7.25047C119.02 7.22621 118.465 7.15418 118.465 6.55064C118.465 6.35731 118.513 6.11618 118.633 5.77877C118.995 4.83781 119.454 4.33206 121.817 4.33206H133.854C133.975 3.84982 134.047 3.43962 134.047 3.07721C134.047 0.737327 131.345 0.689541 128.547 0.689541H123.24C118.899 0.689541 116.028 1.00344 114.171 5.80303C113.737 6.93658 113.52 7.80475 113.52 8.48033C113.52 10.6511 115.642 10.7474 118.754 10.796L125.002 10.9165C126.328 10.9408 126.956 10.9886 126.956 11.6163C126.956 11.8332 126.884 12.1228 126.739 12.4845C126.184 13.8834 125.291 14.0275 123.338 14.0275H111.084C110.988 14.462 110.94 14.8479 110.94 15.1853C110.94 17.67 113.376 17.6943 116.608 17.6943H121.915C128.741 17.6943 130.02 15.5485 131.322 12.1956ZM142.176 17.5502L146.71 5.90006L142.731 4.69447L137.713 17.551L142.176 17.5502ZM154.333 4.69374L155.852 0.810103H137.304L135.784 4.69374H154.333ZM168.516 11.0613C167.55 13.546 166.369 13.8107 164.752 13.8107H159.205C158.047 13.8107 157.251 13.6666 157.251 12.6771C157.251 12.2669 157.371 11.7604 157.637 11.0613L159.108 7.29826C160.073 4.81429 161.207 4.57317 162.823 4.57317H168.371C169.457 4.57317 170.349 4.69373 170.349 5.75524C170.349 6.14118 170.228 6.64768 169.987 7.29826L168.516 11.0613ZM172.906 11.5436L174.739 6.81602C175.173 5.706 175.366 4.79003 175.366 4.04168C175.366 1.29161 172.785 0.688805 169.891 0.688805H164.343C160.508 0.688805 156.697 1.65402 154.695 6.81602L152.861 11.5436C152.428 12.6771 152.21 13.6181 152.21 14.3892C152.21 17.0908 154.695 17.6943 157.709 17.6943H163.257C167.117 17.6943 170.903 16.7056 172.906 11.5436ZM193.36 17.5495L199.897 0.809367H195.435L190.948 12.2669L187.306 3.46241C186.703 2.01496 186.244 0.80863 184.387 0.80863H179.78L173.243 17.5487H177.706L182.578 5.03042L186.944 14.8957C187.571 16.3189 188.029 17.5495 189.887 17.5495H193.36ZM134.483 34.4991L135.299 32.3974H127.397V34.6204H131.166C130.506 36.3046 129.777 36.6699 128.648 36.6699H124.636C123.716 36.6699 123.126 36.5655 123.126 35.7841C123.126 35.4371 123.23 34.9681 123.49 34.308L124.185 32.5194C124.966 30.5045 125.574 29.862 127.207 29.862H136.22C136.307 29.515 136.342 29.2195 136.342 28.9593C136.342 27.0832 134.397 27.0663 132.399 27.0663H128.301C125.349 27.0663 122.778 27.6566 121.233 31.6336L120.017 34.7601C119.652 35.715 119.479 36.4619 119.479 37.0698C119.479 38.9451 121.094 39.3097 123.265 39.3097H127.624C131.462 39.3097 132.902 38.5629 134.483 34.4991ZM147.959 39.2053L149.245 35.9054C149.402 35.5231 149.471 35.1931 149.471 34.9159C149.471 34.186 148.985 33.7699 148.047 33.7346L148.064 33.6824C149.749 33.5089 150.617 32.3974 151.294 30.6434C151.589 29.9142 151.711 29.3231 151.711 28.8549C151.711 27.5177 150.635 27.1531 148.863 27.1531H139.225L134.519 39.2053H137.731L141.396 29.7922H147.404C147.926 29.7922 148.134 29.9311 148.134 30.2435C148.134 30.4692 148.012 30.8169 147.839 31.2852C147.388 32.4312 147.022 32.6576 145.911 32.6576H140.284V35.0019H145.042C145.702 35.0019 145.981 35.2798 145.981 35.7312C145.981 35.9399 145.911 36.2178 145.789 36.5126L144.747 39.2046L147.959 39.2053ZM162.6 34.5337C161.905 36.3229 161.054 36.5133 159.891 36.5133H155.897C155.063 36.5133 154.49 36.409 154.49 35.6966C154.49 35.4011 154.576 35.0365 154.767 34.5329L155.827 31.824C156.521 30.0347 157.337 29.8613 158.501 29.8613H162.496C163.277 29.8613 163.92 29.948 163.92 30.7125C163.92 30.9904 163.833 31.355 163.659 31.824L162.6 34.5337ZM165.761 34.8806L167.081 31.477C167.394 30.678 167.533 30.0186 167.533 29.4797C167.533 27.5001 165.674 27.0663 163.59 27.0663H159.596C156.835 27.0663 154.09 27.761 152.649 31.477L151.328 34.8806C151.016 35.6974 150.859 36.3744 150.859 36.9302C150.859 38.8753 152.649 39.3097 154.819 39.3097H158.813C161.592 39.3097 164.32 38.5974 165.761 34.8806ZM181.27 35.1931L184.413 27.1523H181.2L178.143 34.9843C177.588 36.3913 177.032 36.5126 175.695 36.5126H172.169C171.144 36.5126 170.433 36.495 170.433 35.8348C170.433 35.6437 170.485 35.418 170.606 35.1232L173.715 27.1516H170.502L167.358 35.1923C166.994 36.1127 166.768 36.8596 166.768 37.4675C166.768 38.7349 167.844 39.3083 171.093 39.3083H174.619C178.231 39.3083 180.019 38.4063 181.27 35.1931ZM197.23 31.5807C197.629 30.5736 197.82 29.7745 197.82 29.132C197.82 27.7426 196.882 27.1523 194.85 27.1523H186.167L181.461 39.2046H184.673L188.286 29.948H193.114C193.913 29.948 194.226 30.1046 194.226 30.5214C194.226 30.7816 194.121 31.1117 193.93 31.5807C193.322 33.1266 193.062 33.3178 191.794 33.3178H186.966V36.1134H191.342C194.712 36.1134 195.91 34.9674 197.23 31.5807Z" fill="#7EDAE6"/>
</svg>
