<svg xmlns="http://www.w3.org/2000/svg" xml:space="preserve" width="600" height="450" style="shape-rendering:geometricPrecision;text-rendering:geometricPrecision;image-rendering:optimizeQuality;fill-rule:evenodd;clip-rule:evenodd" viewBox="0 0 75.79 56.84"><defs><style>.str0{stroke:#304952;stroke-width:.26;stroke-miterlimit:22.9256}.fil0{fill:none}.fil10{fill:#213340}.fil11{fill:#223542}.fil12{fill:#243743}.fil13{fill:#253945}.fil14{fill:#263b47}.fil15{fill:#283d48}.fil16{fill:#293f4a}.fil17{fill:#2b414b}.fil18{fill:#2c434d}.fil19{fill:#2d454f}.fil20{fill:#2f4750}.fil3{fill:#304952}.fil9{fill:#3acfe0}.fil2,.fil4{fill:#7edae6}.fil1,.fil7{fill:#a5e8e6}.fil22{fill:#ccc}.fil6{fill:#d9f3f7}.fil5,.fil8{fill:#fff}.fil25{fill:#304952;fill-rule:nonzero}.fil23,.fil24,.fil29{fill:#7edae6;fill-rule:nonzero}.fil24,.fil29{fill:#a5e8e6}</style></defs><g id="Слой_x0020_1"><path class="fil0" d="M0 0h75.79v56.84H0z"/><g id="_2000813243920"><path class="fil1" d="M34.8 3.63h7.14V18.7H34.8z"/><path class="fil2" d="M34.8 3.63v15.15h3.78L36.87 3.63z"/><path class="fil3" d="M40.72 19.35c.02.03.12.05.22.05h.33c.11 0 .17-.02.15-.05l-.4-.53c-.02-.02-.12-.04-.23-.04h-.33c-.1 0-.17.02-.15.04l.41.53zM36.03 19.35c-.02.03-.11.05-.22.05h-.33c-.1 0-.17-.02-.15-.05l.41-.53c.02-.02.12-.04.22-.04h.33c.1 0 .17.02.15.04l-.41.53zM34.56 3.82h7.64v-.39h-7.64z"/><path class="fil3" d="M34.56 18.89h7.64v-.39h-7.64z"/></g><g id="_2000813265136"><circle class="fil3" cx="38.32" cy="10.85" r="2.53"/><path class="fil4" d="M37.33 9.26h.68v1.01h1.01V9.26h.68v2.7h-.68v-1.01h-1.01v1.01h-.68z"/><path class="fil5" d="M37.67 10.61h1.01l.34-.34h-1.01z"/><path class="fil4" d="M37.71 10.6h.97l.3-.31h-.97z"/><path class="fil5" d="M37.67 10.61V9.6l.34-.34v1.01z"/><path class="fil4" d="m37.68 10.57.31-.3V9.3l-.31.3zM38.68 10.61V9.6l.34-.34v1.01zM39.36 12.3l-.01-2.69.33-.34v2.7zM36.99 12.3V9.6l.34-.34v2.7z"/><path class="fil6" d="M36.99 9.6h.68v1.01h1.01V9.6h.68v2.7h-.68v-1.01h-1.01v1.01h-.68z"/><path class="fil7" d="M36.99 12.3V9.6h.34v2.36zM38.68 12.3v-1.01l.34-.34v1.01l-.34.34zm.01-1.68-.01-1.02h.34v.67l-.33.35z"/><path class="fil8" d="M36.99 12.3h.68l.34-.34h-.68z"/><path class="fil4" d="M36.99 12.3h.68l.34-.34h-.68z"/><path class="fil9" d="M37.67 12.3v-.34h.34z"/><path class="fil8" d="M38.68 12.3h.68l.34-.34h-.68z"/><path class="fil4" d="M38.68 12.3h.68l.34-.34h-.68z"/><path class="fil9" d="M39.36 12.3v-.34h.33z"/><path class="fil0" d="m37.45 10.63.01-1.03c0-.06.02-.11.06-.15l.34-.34c.06-.06.15-.08.23-.04.08.03.13.1.13.19v1.06c0 .07-.02.12-.07.16l-.36.31c-.06.06-.15.07-.22.03-.08-.03-.12-.1-.12-.19z"/><path class="fil0" d="m37.66 10.63.01-1.03.34-.34v1.06z"/><path class="fil0" d="M37.66 10.62h1.03v-.35h-.68zM37.67 12.3v-1.03h.34v.69z"/><path class="fil5" d="M39.36 12.3V9.6l.34-.34v2.7l-.34.34zm.01-.04.31-.3V9.3l-.31.3v2.66zM37.65 12.3v-1.01l.36-.34v1.01l-.34.34h-.02zm.02-.02.32-.32v-.98l-.32.31v.99z"/><path class="fil7" d="m37.66 11.28 1.02.01.34-.34h-1.01z"/><path class="fil5" d="M36.99 9.6h.68v1.01h1.01V9.6h.68v2.7h-.68v-1.01h-1.01v1.01h-.68V9.6zm.02.01v2.67h.64v-.99c0-.01.01-.02.02-.02h1.01c.01 0 .02.01.02.02v.99h.64V9.61h-.64v1c0 .01-.01.02-.02.02h-1.01c-.01 0-.02-.01-.02-.02v-1h-.64z"/></g><path class="fil1" d="M5.91 12.06h14.71v10.99H5.91z"/><path class="fil2" d="M5.91 12.06v10.99h8.69l-3.95-10.99z"/><path class="fil10" d="m5.16 24.24 1-.71.22.05-.94.73z"/><g id="_2000813272336"><path class="fil11" d="M5.16 24.24c.34-.24.67-.48 1-.71.08.01.15.03.22.04-.31.25-.63.49-.94.73l-.28-.06z"/><path class="fil12" d="M5.16 24.23c.34-.24.67-.47 1-.71.08.01.15.03.22.05-.31.24-.63.48-.94.72l-.28-.06z"/><path class="fil13" d="M5.16 24.22c.34-.23.67-.47 1-.71.08.02.15.03.22.05-.31.24-.63.48-.94.72-.1-.02-.19-.04-.28-.06z"/><path class="fil14" d="M5.16 24.22c.34-.24.67-.48 1-.72.08.02.15.04.22.05l-.94.73c-.1-.02-.19-.04-.28-.06z"/><path class="fil15" d="M5.16 24.21c.34-.24.67-.48 1-.71.08.01.15.03.22.04-.31.25-.63.49-.94.73-.1-.02-.19-.04-.28-.06z"/><path class="fil16" d="M5.16 24.2c.34-.24.67-.47 1-.71.08.02.15.03.22.05-.31.24-.63.48-.94.72-.1-.02-.19-.04-.28-.06z"/><path class="fil17" d="M5.16 24.19c.34-.23.67-.47 1-.71.08.02.15.03.22.05-.31.24-.63.48-.95.73-.09-.03-.18-.05-.27-.07z"/><path class="fil18" d="M5.16 24.19c.34-.24.67-.48 1-.72.08.02.15.04.22.05-.31.24-.63.49-.95.73l-.27-.06z"/><path class="fil19" d="M5.16 24.18c.34-.24.67-.48 1-.71.08.01.15.03.22.05-.32.24-.63.48-.95.72l-.27-.06z"/><path class="fil20" d="M5.16 24.17c.34-.24.67-.47 1-.71.08.02.15.03.22.05-.32.24-.63.48-.95.72l-.27-.06z"/></g><path class="fil3" d="m5.16 24.16 1-.71.22.05-.95.73z"/><path class="fil3" d="M5.69 23.82V11.84h.22v11.98c-.07.06-.15.06-.22 0z"/><path class="fil10" d="m21.36 24.18-1.01-.71-.21.04.94.73z"/><g id="_2000295081904"><path class="fil11" d="M21.36 24.17c-.34-.24-.67-.47-1-.71-.08.02-.15.03-.22.05.31.24.63.48.94.72.09-.02.18-.04.28-.06z"/><path class="fil12" d="M21.36 24.16c-.34-.23-.67-.47-1-.71-.08.02-.15.03-.22.05.31.24.63.48.94.73.09-.03.18-.05.28-.07z"/><path class="fil13" d="M21.36 24.16c-.34-.24-.67-.48-1-.71-.08.01-.15.03-.22.04l.94.73.28-.06z"/><path class="fil14" d="M21.36 24.15c-.34-.24-.67-.47-1-.71-.08.01-.15.03-.22.05.31.24.63.48.94.72l.28-.06z"/><path class="fil15" d="M21.36 24.14c-.34-.24-.67-.47-1-.71-.08.02-.15.03-.22.05.31.24.63.48.94.72.1-.02.19-.04.28-.06z"/><path class="fil16" d="M21.36 24.13c-.34-.23-.67-.47-1-.71-.08.02-.15.03-.22.05.31.24.63.48.94.73.1-.02.19-.04.28-.07z"/><path class="fil17" d="M21.36 24.13c-.34-.24-.67-.48-1-.71-.08.01-.15.03-.22.04.31.25.63.49.94.73.1-.02.19-.04.28-.06z"/><path class="fil18" d="M21.36 24.12c-.34-.24-.67-.47-1-.71-.08.01-.15.03-.22.05.31.24.63.48.94.72.1-.02.19-.04.28-.06z"/><path class="fil19" d="M21.36 24.11c-.34-.23-.67-.47-1-.71-.08.02-.15.03-.22.05.31.24.63.48.95.72l.27-.06z"/><path class="fil20" d="M21.36 24.11c-.34-.24-.67-.48-1-.72-.08.02-.15.04-.22.05.31.24.63.49.95.73l.27-.06z"/></g><path class="fil3" d="m21.36 24.1-1-.71-.22.04.95.73z"/><path class="fil3" d="M20.83 23.76V11.84h-.22v11.92c.07.05.15.05.22 0z"/><path class="fil3" d="M5.69 11.84h15.15v.22H5.69z"/><circle cx="6.19" cy="12.27" r=".09" style="fill:#fff"/><circle class="fil5" cx="7.67" cy="12.27" r=".09"/><circle class="fil5" cx="9.16" cy="12.27" r=".09"/><circle class="fil5" cx="11.38" cy="12.27" r=".09"/><circle class="fil5" cx="13.26" cy="12.27" r=".09"/><circle class="fil5" cx="15.11" cy="12.27" r=".09"/><circle class="fil5" cx="17.02" cy="12.27" r=".09"/><circle class="fil5" cx="18.91" cy="12.27" r=".09"/><circle class="fil5" cx="20.39" cy="12.27" r=".09"/><g id="_2000295098416"><path class="fil22" d="M6.17 11.84h.04v.43h-.04zM7.65 11.84h.04v.43h-.04zM9.13 11.84h.04v.43h-.04zM11.36 11.84h.04v.43h-.04zM13.24 11.84h.04v.43h-.04zM15.09 11.84h.04v.43h-.04zM16.99 11.84h.04v.43h-.04zM18.89 11.84h.04v.43h-.04zM20.37 11.84h.04v.43h-.04z"/></g><circle class="fil5" transform="matrix(0 -.0991 -.0991 0 20.404 13.696)" r=".9"/><path class="fil22" transform="matrix(0 -.11239 -.11239 0 20.832 13.719)" d="M0 0h.4v3.81H0z"/><circle class="fil5" transform="matrix(0 -.0991 -.0991 0 20.404 15.558)" r=".9"/><path class="fil22" transform="matrix(0 -.11239 -.11239 0 20.832 15.58)" d="M0 0h.4v3.81H0z"/><circle class="fil5" transform="matrix(0 -.0991 -.0991 0 20.404 17.464)" r=".9"/><path class="fil22" transform="matrix(0 -.11239 -.11239 0 20.832 17.486)" d="M0 0h.4v3.81H0z"/><circle class="fil5" transform="matrix(0 -.0991 -.0991 0 20.404 19.34)" r=".9"/><path class="fil22" transform="matrix(0 -.11239 -.11239 0 20.832 19.362)" d="M0 0h.4v3.81H0z"/><circle class="fil5" transform="matrix(0 -.0991 -.0991 0 20.404 21.272)" r=".9"/><path class="fil22" transform="matrix(0 -.11239 -.11239 0 20.832 21.294)" d="M0 0h.4v3.81H0z"/><circle class="fil5" transform="matrix(0 -.0991 .0991 0 6.115 13.797)" r=".9"/><circle class="fil5" transform="matrix(0 -.0991 .0991 0 6.115 15.659)" r=".9"/><circle class="fil5" transform="matrix(0 -.0991 .0991 0 6.115 17.565)" r=".9"/><circle class="fil5" transform="matrix(0 -.0991 .0991 0 6.115 19.44)" r=".9"/><circle class="fil5" transform="matrix(0 -.0991 .0991 0 6.115 21.373)" r=".9"/><g id="_2000295106288"><path class="fil22" transform="matrix(0 -.11239 .11239 0 5.687 13.82)" d="M0 0h.4v3.81H0z"/><path class="fil22" transform="matrix(0 -.11239 .11239 0 5.687 15.681)" d="M0 0h.4v3.81H0z"/><path class="fil22" transform="matrix(0 -.11239 .11239 0 5.687 17.587)" d="M0 0h.4v3.81H0z"/><path class="fil22" transform="matrix(0 -.11239 .11239 0 5.687 19.463)" d="M0 0h.4v3.81H0z"/><path class="fil22" transform="matrix(0 -.11239 .11239 0 5.687 21.395)" d="M0 0h.4v3.81H0z"/></g><circle class="fil5" cx="6.15" cy="22.84" r=".09"/><circle class="fil5" cx="7.63" cy="22.84" r=".09"/><circle class="fil5" cx="9.12" cy="22.84" r=".09"/><circle class="fil5" cx="11.34" cy="22.84" r=".09"/><circle class="fil5" cx="13.22" cy="22.84" r=".09"/><circle class="fil5" cx="15.07" cy="22.84" r=".09"/><circle class="fil5" cx="16.97" cy="22.84" r=".09"/><circle class="fil5" cx="18.87" cy="22.84" r=".09"/><circle class="fil5" cx="20.35" cy="22.84" r=".09"/><path class="fil3" d="M5.69 23.05h15.15v.22H5.69z"/><g id="_2000295110560"><path class="fil22" d="M6.13 22.84h.04v.43h-.04zM7.61 22.84h.04v.43h-.04zM9.09 22.84h.04v.43h-.04zM11.32 22.84h.04v.43h-.04zM13.2 22.84h.04v.43h-.04zM15.05 22.84h.04v.43h-.04zM16.95 22.84h.04v.43h-.04zM18.85 22.84h.04v.43h-.04zM20.33 22.84h.04v.43h-.04z"/></g><g id="_2000295113296"><path class="fil23" d="M58.7 12.04a.915.915 0 0 1-1.83 0c0-.51.41-.91.92-.91.5 0 .91.4.91.91z"/><path class="fil24" d="M58.9 13.37c0 .29-.23.52-.52.52-.29 0-.52-.23-.52-.52 0-.28.23-.52.52-.52.29 0 .52.24.52.52zM57.69 13.67c0 .24-.2.44-.44.44-.25 0-.44-.2-.44-.44s.19-.44.44-.44c.24 0 .44.2.44.44z"/><path class="fil25" d="M57.01 15.66h1.55v-1.11h-1.55z"/><path class="fil25" d="M57.83 11.68v3.22h-.09v-3.22z"/><path class="fil25" d="m58.41 13.4-.59.6-.07-.06.6-.6zM57.28 13.64l.54.54-.07.06-.53-.54zM57.27 11.95l.55.54-.07.06-.54-.54z"/><path class="fil23" d="M61.5 15.66h4.05v-2.11H61.5z"/><path style="fill:#fff;fill-rule:nonzero" d="m63.53 14.25.15.29.28.15-.28.16-.15.28-.16-.28-.28-.16.28-.15z"/><path d="M55.58 21.43c2.22.27 5 .46 7.95.46 2.94 0 5.73-.19 7.94-.46v-2.85c-1.85.25-4.52.45-7.94.45-3.42 0-6.1-.2-7.95-.45v2.85z" style="fill:#2182c4;fill-rule:nonzero"/><path class="fil24" d="M71.47 15.96H55.58v7.1c0 .5 3.56.91 7.95.91 4.38 0 7.94-.41 7.94-.91v-7.1z"/><path class="fil25" d="M55.44 16.11h16.17v-.45H55.44zM55.58 23.51c2.22.27 5 .46 7.95.46 2.94 0 5.73-.19 7.94-.46v-2.85c-1.85.25-4.52.45-7.94.45-3.42 0-6.1-.2-7.95-.45v2.85zM68.08 15.38h.78v-.31h-.78z"/><path class="fil24" d="M67.95 15.66h1.04v-.44h-1.04z"/><path class="fil25" d="M55.58 19.76c2.22.27 5 .46 7.95.46 2.94 0 5.73-.19 7.94-.46v-2.85H55.58v2.85z"/></g><path class="fil1" d="M58.34 38.45c0 .07-.01.15 0 .23 0 .03 0 .07.01.11 0 .03 0 .08.01.11.01.1.03 1.54.03 1.55v.35c0 .05.01.08.01.12v.24c0 .09.01.15.01.24v.48l.01.48c.01.07.01.16.01.24 0 .04-.01.06-.01.11l-.01.36v.24c-.02.38.03.47-.13.85a1.2 1.2 0 0 1-.42.55l-.07.04c-.07.05-.47.35-.49.38.12 0 .86.08 1.07.1.26.03.52.05.77.08.21.03.41.04.62.06l1.22.12c.26.03.51.05.77.08.31.04.61.05.92.09.26.03.51.04.77.08.05.01.11.01.15.01.06.01.11.02.16.02.15.01.3.02.46.04.05.01.1.01.15.02l.31.03c.25.02.51.06.77.08l1.65.16c.02 0 .02 0 .03.01 0-.05.22-.53.25-.61.04-.08.15-.98.16-1.14v-.14c.03-.27 0-.69 0-.99v-.14c0-.2-.01-.37-.01-.57 0-.18-.02-.39-.02-.57v-.57c0-.05-.01-.08-.01-.13l-.01-.58v-.14c0-.08 0-.22-.01-.29-.01-.08 0-.19 0-.28 0-.06-.01-.09-.01-.14 0-.24 0-.48-.01-.71-.01-.19 0-.39-.01-.58 0-.03 0-.03-.01-.06 0-.07 0-.14.01-.21.02-.13.05-.23.11-.33.04-.07.1-.14.18-.18.01 0 .02 0 .03-.01l.02-.01h.01c-.06-.01-.39-.02-.48-.02-.06-.01-.12 0-.17 0l-.16-.01c-.06 0-.1-.01-.16-.01l-.4-.01c-.05-.01-.11 0-.17 0-.03 0-.04-.01-.07-.01-.12 0-.22-.01-.34-.01h-.24c-.04 0-.04-.01-.08-.01-.12 0-.21-.01-.33-.01l-.32-.01h-.17c-.03 0-.03-.01-.07-.01h-.09l-.32-.01c-.05-.01-.12 0-.17 0-.04 0-.04-.01-.08-.01l-.57-.01c-.04 0-.04-.01-.07-.01h-.17c-.04 0-.04-.01-.08-.01l-.57-.01c-.04 0-.04-.01-.08-.01-.05 0-.11.01-.17 0-.05 0-.1-.01-.16 0l-.32-.02h-.17l-.32-.01c-.12 0-.21-.01-.33-.01-.04 0-.04-.01-.08-.01l-.9-.03h-.32l-.25-.01c-.03 0-.04-.01-.07-.01-.06 0-.12.01-.17 0h-.16c-.14 0-.19-.03-.3.02-.3.16-.37.64-.37.98z"/><path class="fil3" d="M54.78 38.05c0 .16.1.24.22.29.11.04.28.07.42.07.05 0 .09.01.12.01.02 0 .07-.01.11-.01h.25c.05 0 .07-.01.11-.01h1.02c.16 0 .31.01.46.01.17 0 .13-.03.13.23 0 .04-.01.07-.01.11-.01.15 0 .32 0 .47v2.36c0 .08-.01.14-.01.22l-.01 1.65v.24c0 .09-.01.07-.1.14l-.67.5c-.05.04-.09.08-.14.1v.26l.45.1c.17.04.1.06.35-.14l.3-.25c.02-.01.14-.1.15-.12.01-.04 0-5.22 0-5.94 0-.13.02-.27.03-.39 0-.08.02-.16.04-.23.02-.1.04-.12.11-.17h-2.1l.1-.21c.01-.04.03-.07.05-.1l.14-.31c.03-.05.09-.18.1-.22.14 0 .26.01.4.01l.38.01c.06.01.14.01.2.01l1.08.02c.05 0 .06.01.1.01h.2l.39.02c.14-.01.25 0 .4 0l.19.01h.1c.03 0 .05.01.09.01h.4l.29.01c.04 0 .06.01.09.01h.3c.11 0 .41.01.49.02h.21c.04 0 .05 0 .09.01H62.09l.41.01c.06 0 .12.01.19.01h.19c.07.01.14 0 .21 0 .26.02.52.03.78.02l.19.01c.2 0 .4.02.6.02h.28c.05 0 .06.01.1.01h.2c.04 0 .05.01.09.01h.3c.07 0 .14 0 .2.01.05.01.14 0 .2 0l1.07.03c.05 0 .06.01.1.01.07 0 .14-.01.21 0h.09c.23 0 .46.02.69.02H68.48c.04.01.06.01.1.01.14 0 .26.01.4.01 0 .03-.02.08-.03.1-.02.04-.03.08-.04.11l-.23.65H68.51l-.18-.01c-.11 0-.23-.01-.34-.01-.06.08-.12.16-.16.27-.04.08-.08.23-.08.35 0 .04-.01.07 0 .1.01.12 0 .14.03.29.02.06.03.12.05.17.02.07.06.04.17.05.06.01.13.01.2.02.08.01.57.04.7.05l.21.01c.04 0 .07.01.1.01l.21.01c.07 0 .14.02.2.02v4.41c-.07 0-.14.01-.22.01h-.22c-.08 0-.14.01-.22.01-.37 0-.74.01-1.12.01v.57h1.78c0 .27.01.17-.14.44-.05.1-.44.75-.44.79v.34h.59c.01-.03.29-.4.3-.43l.31-.43.15-.21.38-.53c.03-.03.08-.09.08-.12v-.45c-.15 0-.31-.02-.46-.03-.02 0-.04.01-.04-.02v-4.36l.57.04c.11.02.27.01.38.03.06.01.13 0 .19.01s.13.01.19.01c.07.01.12.03.19.03.13 0 .26-.01.38-.06.26-.12.37-.35.37-.67v-1.81c0-.18-.11-.32-.24-.42-.21-.15-.55-.15-.82-.15-.41 0-.85-.02-1.27-.02h-.16c-.06 0-.1-.01-.16-.01h-.24c-.03 0-.04-.01-.07-.01-.11 0-.23.01-.33 0-.09-.02-.22 0-.32-.01h-.32c-.06 0-.09-.01-.15-.01-.37 0-.75-.02-1.12-.02l-.48-.01c-.06 0-.1-.01-.16-.01-.43.01-.85-.02-1.28-.02h-.32c-.06 0-.1-.01-.15-.01-.37 0-.75-.02-1.12-.02h-.16c-.06 0-.1-.01-.16-.01h-.24c-.03 0-.04-.01-.07-.01-.11 0-.23.01-.33 0s-.22.01-.32 0c-.11-.02-.27-.01-.39-.02h-.4l-.48-.01c-.27 0-.54-.02-.8-.01-.06 0-.1-.01-.16-.01h-.16c-.07 0-.1-.01-.16-.01h-.24c-.04 0-.04 0-.07-.01-.1 0-.23.01-.33 0-.09-.01-.22 0-.32 0l-.16-.01h-.16c-.06 0-.09-.01-.15-.01h-.48c-.37 0-.75-.03-1.12-.02-.06 0-.1-.01-.15-.01h-.17c-.07 0-.14-.01-.22-.01h-.19c-.03 0-.05 0-.07.01-.29.03-.57.13-.75.39-.02.03-.03.07-.05.11-.17.42-.36.83-.54 1.24-.01.04-.03.08-.05.12-.03.08-.08.14-.08.24z"/><path class="fil1" d="M14.97 33.88c.09-.07.21-.07.3-.01.14.11.14.31 0 .42-.09.06-.21.06-.29 0a.248.248 0 0 1-.01-.41zm-4.49 10.14h.06l-.15-.3.34.02-.15-.31.34.02-.15-.31.34.02-.15-.3.34.02-.15-.31.34.02-.15-.3.34.02-.15-.31.34.02-.15-.31.34.02-.15-.3.34.02-.15-.31.34.02-.15-.3.34.02-.15-.31.34.02-.15-.31.34.03-.15-.31.34.02-.15-.31.34.02-.15-.3.34.02-.15-.31.34.02-.15-.3.35.02-.16-.31.35.02-.16-.31.35.02-.15-.3.34.02-.15-.31.34.02-.15-.3.34.02-.15-.31.34.02-.15-.31.34.03-.15-.31.34.02-.15-.31.34.02-.15-.3.34.02-.15-.31.34.02-.15-.3.34.02-.15-.31.34.02-.15-.31.34.03-.15-.38-1.06-.9c-.24-.2-.62-.13-.81.11l-6.45 7.51 2.32 2.8z"/><path class="fil23" d="M9.2 45.97c-.11-.08-.22-.22-.23-.37a.15.15 0 0 0-.1-.14c-.15-.07-.32-.27-.32-.45 0-.06-.04-.12-.1-.15-.18-.08-.37-.32-.38-.49 0-.07-.03-.13-.09-.16a.575.575 0 0 1-.34-.53c0-.03.02-.06.04-.09l.66-.85c.06-.07.17-.09.24-.02l.91.75c.03.02.05.05.05.09l.41 1.73c.02.06 0 .12-.04.16l-.49.5c-.06.06-.15.07-.22.02zm-3.22-2.05.27.39c.02.03.05.05.09.06l.38.13c.04.01.07.03.09.06l1.63 2.39c.02.03.03.06.03.09l.03.35c0 .03 0 .05.02.07l.08.16c.06.1.22.13.29.04l1.97-2.29c.03-.04.05-.09.04-.13l-.33-2.58c0-.04-.03-.08-.06-.11l-1.98-1.52a.172.172 0 0 0-.23.03l-2.29 2.67c-.05.06-.07.13-.03.19z"/><path class="fil25" d="M7.98 44.21c.06.03.09.09.09.16.01.17.2.41.38.49.06.03.1.09.1.15 0 .18.17.38.32.45.06.02.1.08.1.14.01.15.12.29.23.37.02.01.04.02.06.02l-.85.91-1.54-2.25.78-.86c.03.17.15.34.33.42z"/><path d="m8.88 40.41 1.85 1.68c.12.11.19.26.19.41l.12 2.78c0 .08-.03.15-.08.21-.09.12-.27.07-.3-.07l-.69-2.24a.53.53 0 0 0-.2-.29L7.96 41.5c-.04-.03-.06-.11-.03-.15l.8-.93a.1.1 0 0 1 .15-.01z" style="fill:#304952;fill-rule:nonzero"/><path class="fil29" d="M8.78 41.52c.09.09.25.09.34-.01.09-.09.09-.24 0-.34a.238.238 0 0 0-.34.01c-.1.09-.09.24 0 .34zM9.84 42.43c.1.1.25.1.34 0 .1-.09.1-.24 0-.34a.248.248 0 0 0-.34 0c-.09.1-.09.25 0 .34zM10.43 44.07c.1.09.25.09.34 0 .09-.1.09-.25 0-.34a.248.248 0 0 0-.34 0c-.09.1-.09.25 0 .34z"/><path class="fil23" d="m12.23 38.3-4.59-3.56c-.08-.06-.09-.18-.03-.26.07-.08.18-.1.26-.03l4.59 3.56c.08.06.09.18.03.26-.06.08-.18.09-.26.03z"/><path class="fil25" d="m9.12 36.98-.13-.1c-.46-.36-.55-1.02-.19-1.48.36-.46 1.02-.54 1.47-.18l.13.1-1.28 1.66zM13.23 40.95l-3.02-2.35a.289.289 0 0 1-.05-.41l1.67-2.16c.1-.13.29-.16.42-.06l3.02 2.35c.13.1.16.29.06.42l-1.68 2.16a.3.3 0 0 1-.42.05z"/><path class="fil24" d="m9.08 37.23 1.13.88 1.56-2.01-1.13-.88a.296.296 0 0 0-.4.05l-1.21 1.56c-.09.13-.07.31.05.4zM15.6 44.69l-.53-.41a.142.142 0 0 1-.05-.16l.37-1.24c.03-.1.15-.14.23-.08l.9.7c.07.05.08.15.03.21l-.74.95c-.05.07-.14.08-.21.03z"/><path class="fil25" d="m17.96 43.11-1.7-1.33a.29.29 0 0 1-.06-.41l.79-1.01c.1-.13.28-.15.41-.05l1.71 1.32c.13.1.15.28.05.41l-.79 1.01a.29.29 0 0 1-.41.06z"/><path class="fil25" d="M15.56 39.45 14.2 41.2c-.24.31-.18.76.13 1l.97.76c.26.2.35.55.22.85l-1.21 2.74c-.14.3-.05.65.21.86l.56.43c.35.27.86.16 1.07-.23l2.18-4.1c.08-.17.1-.36.05-.54l-.81-2.7a.697.697 0 0 0-.25-.36l-.76-.59a.715.715 0 0 0-1 .13z"/><path class="fil24" d="m16.17 47.57 2.16-4.06c.08-.17.1-.36.05-.54l-.81-2.7a.697.697 0 0 0-.25-.36l-.63-.49-1.26 1.62c-.24.32-.18.76.13 1.01l.98.75c.26.21.34.56.21.86l-1.21 2.74c-.13.3-.04.65.22.85l.41.32z"/><path class="fil25" d="m14.4 42.52-3.85-2.99c-.25-.2-.24-.58.02-.76l2.97-2.08c.17-.12.4-.11.56.01l3.01 2.34c.2.15.24.45.08.66l-2.13 2.73c-.16.21-.45.25-.66.09zM10.19 37.78c.04-.06.03-.13-.02-.18l-.81-.62a.125.125 0 0 0-.17.02c-.04.05-.03.13.02.17l.81.63c.05.04.13.03.17-.02zm.29-.38.05-.06c.02-.04.02-.09-.02-.11l-.87-.68c-.03-.03-.08-.02-.11.01l-.05.07c-.03.03-.02.08.01.11l.87.68c.04.03.09.02.12-.02zm.34-.43c.04-.06.03-.13-.03-.17l-.8-.63a.125.125 0 0 0-.17.02c-.04.06-.03.13.02.17l.8.63c.06.04.13.03.18-.02zm.31-.41c.04-.05.03-.13-.02-.17l-.81-.62c-.05-.05-.13-.04-.17.02-.04.05-.03.13.02.17l.81.62c.05.05.13.04.17-.02zm.14-.38-.8-.63c-.06-.04-.07-.11-.02-.17.04-.05.11-.06.17-.02l.8.63c.06.04.06.12.02.17-.04.05-.11.06-.17.02z"/><path class="fil23" d="m14.03 40.32 1.4-1.8c.05-.07.04-.17-.03-.23-.07-.05-.17-.04-.22.03l-1.4 1.8c-.05.07-.04.17.03.23.07.05.17.04.22-.03zm.41.31 1.4-1.8c.05-.07.04-.17-.03-.22-.07-.05-.17-.04-.22.03l-1.4 1.8c-.05.07-.04.17.03.22.07.06.17.04.22-.03zm.41.32 1.4-1.8c.05-.07.04-.17-.03-.22a.15.15 0 0 0-.22.03l-1.4 1.8c-.05.07-.04.17.03.22.07.05.17.04.22-.03zm.19.35c-.07-.06-.09-.16-.03-.23l1.4-1.8c.05-.07.15-.08.22-.03.07.06.08.16.03.23l-1.4 1.8c-.06.07-.16.08-.22.03z"/><path class="fil0 str0" d="M71.36 25.63c1.19 2.97 1.16 5.82-.24 8.87M43.76 11.44c3.79.29 7.33 1 10.7 1.99M22.53 13.36c3.37-.92 6.76-1.64 10.19-1.9M5.41 25.59c-1.33 3.4-1.11 6.48.42 9.3"/><path class="fil3" d="m33.55 11.4-1.17-.42.11.96zM55.16 13.84l-.81-.95-.39.88zM70.75 35.01l1.01-.74-.85-.45zM5.55 25.34l-.92.85.9.35z"/><g><circle class="fil3" cx="63.29" cy="20.66" r="2.53"/><path class="fil4" d="M62.32 18.78h.67v1.01h1.02v-1.01h.67v2.7h-.67v-1.01h-1.02v1.01h-.67z"/><path class="fil5" d="M62.66 20.13h1.01l.34-.34h-1.02z"/><path class="fil4" d="M62.69 20.12h.97l.31-.31H63z"/><path class="fil5" d="M62.66 20.13v-1.01l.33-.34v1.01z"/><path class="fil4" d="m62.67 20.1.31-.31v-.97l-.31.31zM63.67 20.13v-1.01l.34-.34v1.01zM64.34 21.82l-.01-2.69.34-.34v2.7zM61.98 21.82v-2.7l.34-.34v2.7z"/><path class="fil6" d="M61.98 19.12h.68v1.01h1.01v-1.01h.67v2.7h-.67v-1.01h-1.01v1.01h-.68z"/><path class="fil7" d="M61.98 21.82v-2.7h.34v2.36zM63.67 21.82v-1.01l.34-.34v1.01l-.34.34zm.01-1.68-.01-1.02h.34v.67l-.33.35z"/><path class="fil8" d="M61.98 21.82h.68l.33-.34h-.67z"/><path class="fil4" d="M61.98 21.82h.68l.33-.34h-.67z"/><path class="fil9" d="M62.66 21.82v-.34h.33z"/><path class="fil8" d="M63.67 21.82h.67l.34-.34h-.67z"/><path class="fil4" d="M63.67 21.82h.67l.34-.34h-.67z"/><path class="fil9" d="M64.34 21.82v-.34h.34z"/><path class="fil0" d="m62.43 20.15.02-1.03c0-.06.02-.11.06-.15l.34-.34c.06-.06.14-.07.22-.04.08.03.13.1.13.19l.01 1.06c0 .07-.02.12-.07.16l-.36.31c-.06.06-.15.07-.23.03a.201.201 0 0 1-.12-.19z"/><path class="fil0" d="m62.64 20.16.02-1.04.33-.34.01 1.07z"/><path class="fil0" d="M62.64 20.14h1.04v-.35h-.69zM62.66 21.82v-1.03h.33v.69z"/><path class="fil5" d="M64.34 21.82v-2.7l.34-.34v2.7l-.34.34zm.02-.04.31-.3v-2.66l-.31.31v2.65zM62.64 21.82v-1.01l.35-.34v1.01l-.33.34h-.02zm.02-.02.32-.32v-.97l-.32.3v.99z"/><path class="fil7" d="m62.64 20.8 1.03.01.34-.34h-1.02z"/><path class="fil5" d="M61.98 19.12h.68v1.01h1.01v-1.01h.67v2.7h-.67v-1.01h-1.01v1.01h-.68v-2.7zm.02.01v2.68h.64v-1c0-.01.01-.02.02-.02h1.01c.01 0 .01.01.01.02v1h.65v-2.68h-.65v1c0 .01 0 .02-.01.02h-1.01c-.01 0-.02-.01-.02-.02v-1H62z"/></g><g><circle class="fil3" cx="62.84" cy="41.64" r="2.53"/><path class="fil4" d="M61.85 40.05h.67v1.01h1.02v-1.01h.67v2.7h-.67v-1.01h-1.02v1.01h-.67z"/><path class="fil5" d="M62.19 41.4h1.01l.34-.34h-1.02z"/><path class="fil4" d="M62.22 41.39h.97l.31-.31h-.97z"/><path class="fil5" d="M62.19 41.4v-1.01l.33-.34v1.01z"/><path class="fil4" d="m62.2 41.36.31-.3v-.97l-.31.3zM63.2 41.4v-1.01l.34-.34v1.01zM63.87 43.09l-.01-2.69.34-.34v2.7zM61.51 43.09v-2.7l.34-.34v2.7z"/><path class="fil6" d="M61.51 40.39h.68v1.01h1.01v-1.01h.67v2.7h-.67v-1.01h-1.01v1.01h-.68z"/><path class="fil7" d="M61.51 43.09v-2.7h.34v2.36zM63.2 43.09v-1.01l.34-.34v1.01l-.34.34zm.01-1.68-.01-1.02h.34v.67l-.33.35z"/><path class="fil8" d="M61.51 43.09h.68l.33-.34h-.67z"/><path class="fil4" d="M61.51 43.09h.67l.34-.34h-.67z"/><path class="fil9" d="M62.19 43.09v-.34h.33z"/><path class="fil8" d="M63.2 43.09h.67l.34-.34h-.67z"/><path class="fil4" d="M63.2 43.09h.67l.34-.34h-.67z"/><path class="fil9" d="M63.87 43.09v-.34h.34z"/><path class="fil0" d="m61.96 41.42.02-1.04c0-.05.02-.1.06-.14l.34-.34c.06-.06.14-.08.22-.04.08.03.13.1.13.19l.01 1.06c0 .07-.03.12-.07.16l-.36.31c-.07.06-.15.07-.23.03a.212.212 0 0 1-.12-.19z"/><path class="fil0" d="m62.17 41.42.02-1.03.33-.34.01 1.06z"/><path class="fil0" d="M62.17 41.41h1.04v-.35h-.69zM62.18 43.09v-1.03h.34v.69z"/><path class="fil5" d="M63.87 43.09v-2.7l.34-.34v2.7l-.34.34zm.02-.04.31-.31v-2.65l-.31.3v2.66zM62.17 43.09v-1.01l.35-.34v1.01l-.34.34h-.01zm.01-.02.33-.33v-.97l-.32.31-.01.99z"/><path class="fil7" d="m62.17 42.07 1.03.01.34-.34h-1.02z"/><path class="fil5" d="M61.51 40.39h.67v1.01h1.02v-1.01h.67v2.7h-.67v-1.01h-1.02v1.01h-.67v-2.7zm.01.01v2.67h.65v-.99c0-.01.01-.02.01-.02h1.02c.01 0 .01.01.01.02v.99h.65V40.4h-.65v1c0 .01 0 .02-.01.02h-1.02s-.01-.01-.01-.02v-1h-.65z"/></g><g><path class="fil25" d="M41.41 51.81c.15-.16.37-.26.61-.26.48 0 .86.39.86.87 0 .24-.09.45-.25.61-.16.16-.37.25-.61.25a.854.854 0 0 1-.61-1.47zm1.82-.05c-.07-.11-.15-.22-.24-.31-.25-.25-.59-.4-.97-.4s-.72.15-.97.4a1.176 1.176 0 0 0-.34.56c-.04.13-.06.27-.06.41 0 .76.61 1.37 1.37 1.37.76 0 1.37-.61 1.37-1.37a1.403 1.403 0 0 0-.16-.66z"/><path class="fil24" d="M42.88 52.42c0-.48-.38-.87-.86-.87-.24 0-.46.1-.61.26a.854.854 0 0 0 .61 1.47c.24 0 .45-.09.61-.25.16-.16.25-.37.25-.61z"/><path class="fil25" d="M31.67 51.81c.16-.16.37-.26.61-.26.48 0 .87.39.87.87 0 .24-.1.45-.26.61-.15.16-.37.25-.61.25-.48 0-.86-.38-.86-.86 0-.24.09-.45.25-.61zm1.82-.05c-.06-.11-.14-.22-.24-.31-.25-.25-.59-.4-.97-.4s-.72.15-.97.4c-.09.09-.17.2-.24.31a1.403 1.403 0 0 0-.16.66c0 .76.61 1.37 1.37 1.37.76 0 1.37-.61 1.37-1.37 0-.14-.02-.28-.06-.41-.02-.09-.06-.17-.1-.25z"/><path class="fil24" d="M33.15 52.42a.87.87 0 0 0-.87-.87c-.24 0-.45.1-.61.26-.16.16-.25.37-.25.61 0 .48.38.86.86.86.24 0 .46-.09.61-.25.16-.16.26-.37.26-.61z"/><path class="fil23" d="M41.27 45.8h1.85c.33 0 .64.15.85.41l1.06 1.38 2.3 1.2c.36.19.59.56.59.97v1.82h-6.65V45.8zM35.67 43.24h5.06c.2 0 .37.16.37.37l.01 7.98h-10.5c-.21 0-.37-.17-.37-.38v-7.6c0-.21.16-.37.37-.37h5.06z"/><path class="fil24" d="M31.65 43.24h1.11c.17 0 .3.13.3.3v7.75a.3.3 0 0 1-.3.3h-2.52v-7.98c0-.2.16-.37.37-.37h1.04z"/><path class="fil25" d="M31.5 43.24h.11v8.35h-.22v-8.35z"/><path class="fil25" d="m47.88 51.47-17.79.01c-.18 0-.32.14-.32.31v.39c0 .17.14.31.32.31h17.79c.21 0 .38-.17.38-.38v-.25c0-.22-.17-.39-.38-.39z"/><path class="fil25" d="m32.83 51.47-2.74.01c-.18 0-.32.14-.32.31v.39c0 .17.14.31.32.31h2.74c.21 0 .38-.17.38-.38v-.25c0-.22-.17-.39-.38-.39z"/><path d="m44.16 48.11-.75-1.49a.438.438 0 0 0-.38-.23h-.89v1.72h2.02z" style="fill:#fff;fill-rule:nonzero"/><path class="fil24" d="M32.07 52.14h.73v-.41h-.73zM29.96 52.14h.46v-.41h-.46z"/><path class="fil25" d="M33.8 52.37c.16-.16.38-.26.61-.26.48 0 .87.39.87.87 0 .24-.1.45-.25.61-.16.15-.38.25-.62.25-.47 0-.86-.39-.86-.86 0-.24.1-.46.25-.61zm1.82-.05a1.392 1.392 0 0 0-1.21-.72 1.386 1.386 0 0 0-1.37 1.38c0 .75.62 1.37 1.37 1.37a1.38 1.38 0 0 0 1.32-1.78c-.03-.09-.07-.17-.11-.25z"/><path class="fil24" d="M35.28 52.98a.87.87 0 0 0-.87-.87.872.872 0 0 0-.86.87c0 .47.39.86.86.86.24 0 .46-.1.62-.25.15-.16.25-.37.25-.61z"/><path class="fil25" d="M43.22 52.37c.16-.16.37-.26.61-.26.48 0 .87.39.87.87a.87.87 0 0 1-.87.86.86.86 0 0 1-.86-.86c0-.24.09-.46.25-.61zm1.82-.05c-.06-.11-.14-.22-.24-.31-.25-.25-.59-.41-.97-.41s-.72.16-.97.41c-.09.09-.17.2-.24.31-.04.08-.07.16-.1.25a1.372 1.372 0 0 0 1.31 1.78 1.372 1.372 0 0 0 1.31-1.78c-.02-.09-.06-.17-.1-.25z"/><path class="fil24" d="M43.83 53.84a.87.87 0 0 0 .87-.86.87.87 0 0 0-.87-.87c-.24 0-.45.1-.61.26-.16.15-.25.37-.25.61 0 .47.38.86.86.86z"/><path class="fil3" d="M47.65 49.76h.27v1.05h-.27z"/><path class="fil25" d="M41.1 51.47h.31V45.8h-.31z"/><g><circle class="fil3" cx="37.12" cy="47.39" r="2.53"/><path class="fil4" d="M36.12 45.8h.68v1.01h1.01V45.8h.68v2.7h-.68v-1.01H36.8v1.01h-.68z"/><path class="fil5" d="M36.46 47.15h1.02l.33-.34H36.8z"/><path class="fil4" d="M36.5 47.13h.97l.31-.3h-.97z"/><path class="fil5" d="M36.46 47.15v-1.01l.34-.34v1.01z"/><path class="fil4" d="m36.48 47.11.3-.3v-.97l-.3.3zM37.48 47.15v-1.01l.33-.34v1.01zM38.15 48.84l-.01-2.69.34-.34v2.7zM35.79 48.84v-2.7l.33-.34v2.7z"/><path class="fil6" d="M35.79 46.14h.67v1.01h1.02v-1.01h.67v2.7h-.67v-1.01h-1.02v1.01h-.67z"/><path class="fil7" d="M35.79 48.84v-2.7h.33v2.36zM37.47 48.84v-1.01l.34-.34v1.01l-.34.34zm.02-1.68-.02-1.02h.34v.67l-.32.35z"/><path class="fil8" d="M35.79 48.84h.67l.34-.34h-.68z"/><path class="fil4" d="M35.79 48.84h.67l.34-.34h-.68z"/><path class="fil9" d="M36.46 48.84v-.34h.34z"/><path class="fil8" d="M37.48 48.84h.67l.34-.34h-.68z"/><path class="fil4" d="M37.48 48.84h.67l.34-.34h-.68z"/><path class="fil9" d="M38.15 48.84v-.34h.34z"/><path class="fil0" d="m36.24 47.17.01-1.04c0-.05.02-.1.06-.14l.34-.34c.06-.06.15-.08.23-.04.08.03.13.1.13.19l.01 1.06c0 .07-.03.12-.08.16l-.35.31c-.07.06-.15.07-.23.03-.08-.03-.12-.11-.12-.19z"/><path class="fil0" d="m36.45 47.17.01-1.03.34-.34.01 1.06z"/><path class="fil0" d="M36.45 47.16h1.04v-.35h-.69zM36.46 48.84v-1.03h.34v.69z"/><path class="fil5" d="M38.15 48.84v-2.7l.34-.34v2.7l-.34.34zm.01-.04.31-.31v-2.65l-.3.3-.01 2.66zM36.45 48.84v-1.01l.35-.34v1.01l-.34.34h-.01zm.01-.02.33-.33v-.97l-.33.31v.99z"/><path class="fil7" d="m36.45 47.82 1.02.01.34-.34H36.8z"/><path class="fil5" d="M35.79 46.14h.67v1.01h1.01v-1.01h.68v2.7h-.68v-1.01h-1.01v1.01h-.67v-2.7zm.01.01v2.67h.65v-.99c0-.01 0-.02.01-.02h1.01c.01 0 .02.01.02.02v.99h.65v-2.67h-.65v1c0 .01-.01.01-.02.01h-1.01c-.01 0-.01 0-.01-.01v-1h-.65z"/></g></g><g><circle class="fil3" cx="13.24" cy="17.56" r="2.53"/><path class="fil4" d="M12.25 15.96h.68v1.02h1.01v-1.02h.67v2.71h-.67v-1.02h-1.01v1.02h-.68z"/><path class="fil5" d="M12.59 17.31h1.01l.34-.33h-1.01z"/><path class="fil4" d="M12.62 17.3h.97l.31-.31h-.97z"/><path class="fil5" d="M12.59 17.31V16.3l.34-.34v1.02z"/><path class="fil4" d="m12.6 17.28.31-.31V16l-.31.31zM13.6 17.31V16.3l.34-.34v1.02zM14.28 19l-.02-2.69.34-.34v2.71zM11.91 19v-2.7l.34-.34v2.71z"/><path class="fil6" d="M11.91 16.3h.68v1.01h1.01V16.3h.68l-.01 2.7h-.67v-1.01h-1.01V19h-.68z"/><path class="fil7" d="M11.91 19v-2.7h.34v2.37zM13.6 19v-1.01l.34-.34v1.02l-.34.33zm.01-1.67-.01-1.03h.34v.68l-.33.35z"/><path class="fil8" d="M11.91 19h.68l.34-.33h-.68z"/><path class="fil4" d="M11.91 19h.68l.33-.33h-.67z"/><path class="fil9" d="M12.59 19v-.33h.34z"/><path class="fil8" d="M13.6 19h.67l.34-.33h-.67z"/><path class="fil4" d="M13.6 19h.67l.34-.33h-.67z"/><path class="fil9" d="M14.27 19v-.33h.34z"/><path class="fil0" d="m12.37 17.34.01-1.04c0-.06.02-.11.06-.15l.34-.33c.06-.06.14-.08.22-.05.08.03.13.11.13.19l.01 1.07c0 .06-.02.12-.07.16l-.36.31c-.06.05-.15.06-.22.03-.08-.04-.13-.11-.12-.19z"/><path class="fil0" d="m12.57 17.34.02-1.04.34-.34v1.07z"/><path class="fil0" d="M12.57 17.33h1.04v-.35h-.68zM12.59 19v-1.02h.34v.69z"/><path class="fil5" d="m14.27 19 .01-2.7.33-.34v2.71l-.34.33zm.02-.03.31-.31V16l-.31.31v2.66zM12.57 19v-1.01l.36-.34v1.02l-.34.33h-.02zm.02-.02.32-.32v-.97l-.32.3v.99z"/><path class="fil7" d="m12.57 17.98 1.03.01.34-.34h-1.02z"/><path class="fil5" d="M11.91 16.3h.68v1.01h1.01V16.3h.68l-.01 2.7h-.67v-1.01h-1.01V19h-.68v-2.7zm.02.02v2.67h.64v-1c0-.01.01-.01.02-.01h1.01c.01 0 .01 0 .01.01v1h.65v-2.67h-.65v.99c0 .01 0 .02-.01.02h-1.01c-.01 0-.02-.01-.02-.02v-.99h-.64z"/></g><path class="fil0 str0" d="M28.14 47.44c-2.81-.48-5.58-1.2-8.31-2.18M49.13 47.38c2.18-.41 4.33-.94 6.44-1.61"/><path class="fil3" d="m48.53 47.47 1.04-.69.12.96zM18.97 44.85l1.24-.02-.41.88z"/></g></svg>